{"glyphs":{"0":{"ha":1000,"x_min":0,"x_max":0,"o":"m 500 -14 b 88 486 244 -14 88 210 b 500 986 88 762 244 986 b 911 486 755 986 911 762 b 500 -14 911 210 755 -14 m 500 37 b 853 486 735 37 853 264 b 500 936 853 708 735 936 b 146 486 264 936 146 708 b 500 37 146 264 264 37 "},"1":{"ha":461,"x_min":0,"x_max":0,"o":"m 54 758 l 302 972 l 346 972 l 346 0 l 290 0 l 290 890 l 93 718 "},"2":{"ha":897,"x_min":0,"x_max":0,"o":"m 124 738 b 466 986 124 738 186 986 b 781 730 663 986 781 865 b 548 362 781 570 686 485 b 197 50 492 312 197 50 l 795 50 l 795 0 l 102 0 l 102 35 b 517 405 102 35 471 363 b 723 730 652 524 723 601 b 466 935 723 844 629 935 b 183 738 239 935 183 738 "},"3":{"ha":897,"x_min":0,"x_max":0,"o":"m 150 198 b 450 37 150 198 208 37 b 752 265 630 37 752 128 b 366 475 752 412 618 475 l 366 525 b 727 740 585 525 727 600 b 450 936 727 838 636 936 b 170 774 225 936 170 774 l 109 774 b 450 986 109 774 170 986 b 784 740 638 986 784 892 b 545 504 784 614 667 528 b 809 265 663 490 809 416 b 450 -14 809 88 649 -14 b 88 198 141 -14 88 198 "},"4":{"ha":989,"x_min":0,"x_max":0,"o":"m 683 0 l 683 293 l 102 293 l 102 325 l 688 972 l 739 972 l 739 343 l 901 343 l 901 293 l 739 293 l 739 0 m 683 343 l 683 887 l 191 343 "},"5":{"ha":915,"x_min":0,"x_max":0,"o":"m 454 37 b 756 303 671 37 756 164 b 454 571 756 444 671 571 b 122 475 286 571 122 475 l 152 972 l 757 972 l 757 922 l 203 922 l 182 556 b 454 621 182 556 305 621 b 813 303 705 621 813 474 b 454 -14 813 135 705 -14 b 115 191 159 -14 115 191 l 178 191 b 454 37 178 191 231 37 "},"6":{"ha":984,"x_min":0,"x_max":0,"o":"m 497 936 b 170 447 267 933 185 752 b 488 612 174 454 239 612 b 869 306 732 612 869 467 b 488 -14 869 136 732 -14 b 121 302 237 -14 132 150 b 497 986 92 697 193 986 b 800 819 730 986 800 819 l 740 819 b 497 936 740 819 679 936 m 812 306 b 488 562 812 453 682 562 b 178 306 293 562 178 453 b 488 37 178 159 293 37 b 812 306 682 37 812 159 "},"7":{"ha":872,"x_min":0,"x_max":0,"o":"m 88 972 l 784 972 l 784 951 l 316 0 l 257 0 l 711 922 l 88 922 "},"8":{"ha":933,"x_min":0,"x_max":0,"o":"m 467 -14 b 95 262 263 -14 95 77 b 306 511 95 393 205 481 b 120 732 197 539 120 632 b 467 986 120 899 276 986 b 813 732 657 986 813 899 b 627 511 813 632 736 539 b 838 262 728 481 838 393 b 467 -14 838 77 670 -14 m 467 37 b 781 262 652 37 781 122 b 467 487 781 401 652 487 b 152 262 281 487 152 401 b 467 37 152 122 281 37 m 177 732 b 467 528 177 602 299 528 b 756 732 634 528 756 602 b 467 936 756 861 634 936 b 177 732 299 936 177 861 "},"9":{"ha":984,"x_min":0,"x_max":0,"o":"m 487 37 b 814 526 717 39 799 220 b 496 361 810 519 745 361 b 115 667 252 361 115 505 b 496 986 115 837 252 986 b 863 670 747 986 852 823 b 487 -14 892 275 791 -14 b 184 153 254 -14 184 153 l 244 153 b 487 37 244 153 305 37 m 172 667 b 496 411 172 519 302 411 b 806 667 691 411 806 519 b 496 936 806 814 691 936 b 172 667 302 936 172 814 "}," ":{"ha":407,"x_min":0,"x_max":0,"o":""},"A":{"ha":1034,"x_min":0,"x_max":0,"o":"m 777 310 l 256 310 l 115 0 l 54 0 l 503 972 l 531 972 l 979 0 l 919 0 m 279 360 l 754 360 l 517 880 "},"B":{"ha":920,"x_min":0,"x_max":0,"o":"m 115 0 l 115 972 l 506 972 b 792 713 732 972 792 841 b 665 510 792 614 739 542 b 831 280 766 482 831 392 b 519 0 831 142 745 0 m 533 50 b 773 280 720 50 773 188 b 589 482 773 374 715 482 l 171 482 l 171 50 m 589 532 b 734 713 683 532 734 623 b 519 922 734 800 700 922 l 171 922 l 171 532 "},"C":{"ha":1000,"x_min":0,"x_max":0,"o":"m 146 486 b 561 37 146 250 311 37 b 862 184 773 37 862 184 l 925 184 b 561 -14 925 184 825 -14 b 88 486 285 -14 88 210 b 561 986 88 762 285 986 b 925 788 825 986 925 788 l 862 788 b 561 936 862 788 773 936 b 146 486 311 936 146 723 "},"D":{"ha":955,"x_min":0,"x_max":0,"o":"m 115 0 l 115 972 l 421 972 b 867 486 704 972 867 749 b 421 0 867 224 704 0 m 421 50 b 808 486 684 50 808 264 b 421 922 808 708 684 922 l 171 922 l 171 50 l 421 50 "},"E":{"ha":861,"x_min":0,"x_max":0,"o":"m 683 522 l 683 472 l 171 472 l 171 50 l 760 50 l 760 0 l 115 0 l 115 972 l 755 972 l 755 922 l 171 922 l 171 522 "},"F":{"ha":857,"x_min":0,"x_max":0,"o":"m 683 522 l 683 472 l 171 472 l 171 0 l 115 0 l 115 972 l 755 972 l 755 922 l 171 922 l 171 522 "},"G":{"ha":1088,"x_min":0,"x_max":0,"o":"m 146 486 b 561 37 146 250 311 37 b 935 472 817 37 935 243 l 581 472 l 581 522 l 992 522 b 561 -14 1008 189 825 -14 b 88 486 285 -14 88 210 b 561 986 88 762 285 986 b 939 788 826 986 939 788 l 876 788 b 561 936 876 788 774 936 b 146 486 311 936 146 723 "},"H":{"ha":963,"x_min":0,"x_max":0,"o":"m 792 972 l 848 972 l 848 0 l 792 0 l 792 472 l 171 472 l 171 0 l 115 0 l 115 972 l 171 972 l 171 522 l 792 522 "},"I":{"ha":313,"x_min":0,"x_max":0,"o":"m 129 972 l 184 972 l 184 0 l 129 0 "},"J":{"ha":779,"x_min":0,"x_max":0,"o":"m 136 222 b 359 37 136 222 164 37 b 608 351 530 37 608 144 l 608 972 l 664 972 l 664 335 b 359 -14 664 114 559 -14 b 75 222 100 -14 75 222 "},"K":{"ha":905,"x_min":0,"x_max":0,"o":"m 774 972 l 850 972 l 380 571 l 850 0 l 783 0 l 341 538 l 171 392 l 171 0 l 115 0 l 115 972 l 171 972 l 171 461 "},"L":{"ha":804,"x_min":0,"x_max":0,"o":"m 171 50 l 715 50 l 715 0 l 115 0 l 115 972 l 171 972 "},"M":{"ha":1192,"x_min":0,"x_max":0,"o":"m 596 53 l 991 972 l 1077 972 l 1077 0 l 1021 0 l 1021 907 l 631 0 l 561 0 l 171 907 l 171 0 l 115 0 l 115 972 l 201 972 "},"N":{"ha":966,"x_min":0,"x_max":0,"o":"m 115 972 l 183 972 l 795 74 l 795 972 l 850 972 l 850 0 l 783 0 l 171 899 l 171 0 l 115 0 "},"O":{"ha":1149,"x_min":0,"x_max":0,"o":"m 574 986 b 1061 486 850 986 1061 762 b 574 -14 1061 210 850 -14 b 88 486 298 -14 88 210 b 574 986 88 762 298 986 m 1002 486 b 574 936 1002 723 825 936 b 146 486 324 936 146 723 b 574 37 146 250 324 37 b 1002 486 825 37 1002 250 "},"P":{"ha":913,"x_min":0,"x_max":0,"o":"m 171 922 l 171 454 l 515 454 b 754 692 672 454 754 555 b 515 922 754 829 672 922 m 115 0 l 115 972 l 515 972 b 811 692 699 972 811 865 b 515 404 811 518 699 404 l 171 404 l 171 0 "},"Q":{"ha":1149,"x_min":0,"x_max":0,"o":"m 574 986 b 1061 486 850 986 1061 762 b 850 73 1061 314 979 163 l 1002 -106 l 927 -106 l 799 41 b 574 -14 732 6 656 -14 b 88 486 298 -14 88 210 b 574 986 88 762 298 986 m 1002 486 b 574 936 1002 723 825 936 b 146 486 324 936 146 723 b 574 37 146 250 324 37 b 1002 486 825 37 1002 250 "},"R":{"ha":906,"x_min":0,"x_max":0,"o":"m 115 0 l 115 972 l 538 972 b 811 704 696 972 811 872 b 566 442 811 555 702 452 l 804 0 l 744 0 l 510 435 l 171 435 l 171 0 m 171 922 l 171 486 l 538 486 b 754 704 668 486 754 570 b 538 922 754 838 668 922 "},"S":{"ha":838,"x_min":0,"x_max":0,"o":"m 132 201 b 414 37 132 201 191 37 b 707 251 600 37 707 115 b 414 477 707 376 625 441 b 95 744 178 518 95 606 b 414 986 95 894 223 986 b 725 785 693 986 725 785 l 668 785 b 414 936 668 785 643 936 b 151 744 254 936 151 865 b 414 532 151 646 205 569 b 763 251 650 491 763 411 b 414 -14 763 83 635 -14 b 75 201 130 -14 75 201 "},"T":{"ha":924,"x_min":0,"x_max":0,"o":"m 849 972 l 849 922 l 490 922 l 490 0 l 434 0 l 434 922 l 75 922 l 75 972 "},"U":{"ha":952,"x_min":0,"x_max":0,"o":"m 476 -14 b 115 416 230 -14 115 159 l 115 972 l 171 972 l 171 430 b 476 37 171 190 264 37 b 781 430 688 37 781 190 l 781 972 l 837 972 l 837 416 b 476 -14 837 159 722 -14 "},"V":{"ha":1006,"x_min":0,"x_max":0,"o":"m 892 972 l 952 972 l 517 0 l 489 0 l 54 972 l 115 972 l 503 92 "},"W":{"ha":1289,"x_min":0,"x_max":0,"o":"m 904 165 l 1175 972 l 1234 972 l 909 0 l 900 0 l 644 810 l 389 0 l 380 0 l 54 972 l 114 972 l 385 165 l 640 972 l 649 972 "},"X":{"ha":937,"x_min":0,"x_max":0,"o":"m 781 972 l 849 972 l 509 508 l 883 0 l 814 0 l 469 469 l 123 0 l 54 0 l 429 508 l 88 972 l 157 972 l 469 547 "},"Y":{"ha":954,"x_min":0,"x_max":0,"o":"m 477 458 l 833 972 l 899 972 l 505 399 l 505 0 l 449 0 l 449 399 l 54 972 l 121 972 "},"Z":{"ha":920,"x_min":0,"x_max":0,"o":"m 819 50 l 819 0 l 102 0 l 102 28 l 732 922 l 109 922 l 109 972 l 816 972 l 816 945 l 185 50 "},"a":{"ha":853,"x_min":0,"x_max":0,"o":"m 75 336 b 413 685 75 538 220 685 b 701 494 625 685 701 494 l 701 671 l 751 671 l 751 0 l 701 0 l 701 176 b 413 -14 701 176 625 -14 b 75 336 220 -14 75 133 m 701 336 b 413 643 701 516 578 643 b 125 336 248 643 125 516 b 413 28 125 155 248 28 b 701 336 578 28 701 155 "},"b":{"ha":853,"x_min":0,"x_max":0,"o":"m 779 336 b 440 -14 779 133 633 -14 b 152 176 228 -14 152 176 l 152 0 l 102 0 l 102 1028 l 152 1028 l 152 494 b 440 685 152 494 228 685 b 779 336 633 685 779 538 m 152 336 b 440 28 152 155 275 28 b 728 336 606 28 728 155 b 440 643 728 516 606 643 b 152 336 275 643 152 516 "},"c":{"ha":751,"x_min":0,"x_max":0,"o":"m 125 336 b 406 28 125 155 241 28 b 633 149 568 28 633 149 l 690 149 b 406 -14 690 149 612 -14 b 75 336 213 -14 75 133 b 406 685 75 538 213 685 b 690 522 612 685 690 522 l 633 522 b 406 643 633 522 568 643 b 125 336 241 643 125 516 "},"d":{"ha":853,"x_min":0,"x_max":0,"o":"m 75 336 b 413 685 75 538 220 685 b 701 494 625 685 701 494 l 701 1028 l 751 1028 l 751 0 l 701 0 l 701 176 b 413 -14 701 176 625 -14 b 75 336 220 -14 75 133 m 701 336 b 413 643 701 516 578 643 b 125 336 248 643 125 516 b 413 28 125 155 248 28 b 701 336 578 28 701 155 "},"e":{"ha":827,"x_min":0,"x_max":0,"o":"m 718 149 b 413 -14 718 149 633 -14 b 75 336 220 -14 75 133 b 413 685 75 538 220 685 b 751 318 606 685 761 533 l 125 318 b 413 28 133 147 253 28 b 663 149 582 28 663 149 m 413 643 b 125 360 255 643 136 528 l 700 360 b 413 643 690 528 571 643 "},"f":{"ha":589,"x_min":0,"x_max":0,"o":"m 480 671 l 480 629 l 264 629 l 264 0 l 214 0 l 214 629 l 61 629 l 61 671 l 214 671 l 214 739 b 404 1042 214 940 250 1042 b 494 1028 455 1042 494 1028 l 494 988 b 406 1000 494 988 450 1000 b 264 725 273 1000 264 895 l 264 671 "},"g":{"ha":853,"x_min":0,"x_max":0,"o":"m 75 336 b 413 685 75 538 220 685 b 701 494 620 685 697 504 l 701 671 l 751 671 l 751 34 b 420 -361 751 -202 664 -361 b 132 -183 195 -361 132 -183 l 184 -183 b 420 -319 184 -183 250 -319 b 701 49 632 -319 701 -179 l 701 176 b 413 -14 697 167 620 -14 b 75 336 220 -14 75 133 m 701 336 b 413 643 701 516 578 643 b 125 336 248 643 125 516 b 413 28 125 155 248 28 b 701 336 578 28 701 155 "},"h":{"ha":788,"x_min":0,"x_max":0,"o":"m 686 0 l 636 0 l 636 336 b 394 643 636 495 574 643 b 152 336 214 643 152 495 l 152 0 l 102 0 l 102 1028 l 152 1028 l 152 514 b 401 685 155 522 197 685 b 686 349 586 685 686 544 "},"i":{"ha":286,"x_min":0,"x_max":0,"o":"m 118 671 l 168 671 l 168 0 l 118 0 m 102 877 b 143 918 102 900 120 918 b 184 877 166 918 184 900 b 143 836 184 854 166 836 b 102 877 120 836 102 854 "},"j":{"ha":292,"x_min":0,"x_max":0,"o":"m 123 671 l 174 671 l 174 -58 b -26 -361 174 -279 113 -361 b -142 -342 -104 -361 -142 -342 l -125 -303 b -33 -319 -125 -303 -82 -319 b 123 -51 79 -319 123 -247 m 107 877 b 149 918 107 900 125 918 b 190 877 172 918 190 900 b 149 836 190 854 172 836 b 107 877 125 836 107 854 "},"k":{"ha":685,"x_min":0,"x_max":0,"o":"m 569 671 l 644 671 l 313 417 l 644 0 l 585 0 l 277 389 l 152 293 l 152 0 l 102 0 l 102 1028 l 152 1028 l 152 351 "},"l":{"ha":254,"x_min":0,"x_max":0,"o":"m 102 0 l 102 1028 l 152 1028 l 152 0 "},"m":{"ha":1208,"x_min":0,"x_max":0,"o":"m 1107 0 l 1057 0 l 1057 344 b 843 642 1057 490 1009 642 b 629 344 677 642 629 490 l 629 0 l 579 0 l 579 344 b 366 642 579 490 532 642 b 152 344 199 642 152 490 l 152 0 l 102 0 l 102 671 l 152 671 l 152 526 b 370 685 155 534 194 685 b 612 494 574 685 612 494 b 847 685 612 494 650 685 b 1107 361 1015 685 1107 557 "},"n":{"ha":788,"x_min":0,"x_max":0,"o":"m 686 0 l 636 0 l 636 336 b 394 643 636 495 574 643 b 152 336 214 643 152 495 l 152 0 l 102 0 l 102 671 l 152 671 l 152 514 b 401 685 155 522 197 685 b 686 349 586 685 686 544 "},"o":{"ha":826,"x_min":0,"x_max":0,"o":"m 75 336 b 413 685 75 538 220 685 b 751 336 606 685 751 538 b 413 -14 751 133 606 -14 b 75 336 220 -14 75 133 m 701 336 b 413 643 701 516 578 643 b 125 336 248 643 125 516 b 413 28 125 155 248 28 b 701 336 578 28 701 155 "},"p":{"ha":853,"x_min":0,"x_max":0,"o":"m 779 336 b 440 -14 779 133 633 -14 b 152 176 228 -14 152 176 l 152 -361 l 102 -361 l 102 671 l 152 671 l 152 494 b 440 685 152 494 228 685 b 779 336 633 685 779 538 m 152 336 b 440 28 152 155 275 28 b 728 336 606 28 728 155 b 440 643 728 516 606 643 b 152 336 275 643 152 516 "},"q":{"ha":853,"x_min":0,"x_max":0,"o":"m 75 336 b 413 685 75 538 220 685 b 701 494 625 685 701 494 l 701 671 l 751 671 l 751 -361 l 701 -361 l 701 176 b 413 -14 701 176 625 -14 b 75 336 220 -14 75 133 m 701 336 b 413 643 701 516 578 643 b 125 336 248 643 125 516 b 413 28 125 155 248 28 b 701 336 578 28 701 155 "},"r":{"ha":532,"x_min":0,"x_max":0,"o":"m 458 629 b 360 643 458 629 414 643 b 152 329 186 643 152 488 l 152 0 l 102 0 l 102 671 l 152 671 l 152 519 b 361 685 152 519 174 685 b 458 671 415 685 458 671 "},"s":{"ha":673,"x_min":0,"x_max":0,"o":"m 335 28 b 562 177 481 28 562 87 b 335 327 562 267 491 306 b 79 507 175 349 79 401 b 335 685 79 610 162 685 b 585 541 553 685 585 541 l 534 541 b 335 643 534 541 505 643 b 130 507 182 643 130 576 b 335 372 130 431 195 393 b 612 177 503 347 612 305 b 335 -14 612 52 496 -14 b 61 137 99 -14 61 137 l 111 137 b 335 28 111 137 155 28 "},"t":{"ha":555,"x_min":0,"x_max":0,"o":"m 61 671 l 214 671 l 214 871 l 264 871 l 264 671 l 481 671 l 481 629 l 264 629 l 264 269 b 389 28 264 106 278 28 b 481 41 427 28 481 41 l 481 0 b 382 -14 481 0 435 -14 b 214 269 247 -14 214 74 l 214 629 l 61 629 "},"u":{"ha":788,"x_min":0,"x_max":0,"o":"m 102 671 l 152 671 l 152 336 b 394 28 152 176 214 28 b 636 336 574 28 636 176 l 636 671 l 686 671 l 686 0 l 636 0 l 636 157 b 387 -14 633 150 591 -14 b 102 322 202 -14 102 127 "},"v":{"ha":728,"x_min":0,"x_max":0,"o":"m 632 671 l 688 671 l 391 0 l 337 0 l 41 671 l 96 671 l 364 64 "},"w":{"ha":981,"x_min":0,"x_max":0,"o":"m 297 0 l 267 0 l 41 671 l 95 671 l 283 106 l 474 671 l 507 671 l 697 106 l 886 671 l 940 671 l 713 0 l 684 0 l 490 573 "},"x":{"ha":703,"x_min":0,"x_max":0,"o":"m 583 671 l 641 671 l 380 359 l 662 0 l 604 0 l 351 323 l 98 0 l 41 0 l 322 359 l 62 671 l 119 671 l 351 393 "},"y":{"ha":728,"x_min":0,"x_max":0,"o":"m 632 671 l 688 671 l 232 -361 l 177 -361 l 337 0 l 41 671 l 96 671 l 364 64 "},"z":{"ha":699,"x_min":0,"x_max":0,"o":"m 75 26 l 553 629 l 92 629 l 92 671 l 625 671 l 625 646 l 146 42 l 625 42 l 625 0 l 75 0 "}," ":{"ha":389,"x_min":0,"x_max":0,"o":""},"#":{"ha":1020,"x_min":0,"x_max":0,"o":"m 159 689 l 349 689 l 395 972 l 445 972 l 399 689 l 685 689 l 730 972 l 780 972 l 734 689 l 918 689 l 918 646 l 728 646 l 677 327 l 861 327 l 861 283 l 670 283 l 625 0 l 576 0 l 621 283 l 335 283 l 290 0 l 240 0 l 285 283 l 102 283 l 102 327 l 292 327 l 342 646 l 159 646 m 342 327 l 627 327 l 678 646 l 393 646 "},"&":{"ha":970,"x_min":0,"x_max":0,"o":"m 404 986 b 606 788 522 986 606 905 b 370 519 606 660 486 589 b 675 218 453 429 589 297 b 749 448 726 309 749 448 l 806 448 b 720 178 806 448 783 279 b 930 0 803 110 930 0 l 849 0 b 687 132 849 0 757 75 b 374 -14 610 53 502 -14 b 76 211 224 -14 90 49 b 286 534 63 355 144 447 b 196 762 232 600 196 675 b 404 986 196 888 271 986 m 133 212 b 372 37 146 85 253 37 b 645 172 492 37 594 113 b 319 492 541 267 412 396 b 133 212 188 419 119 336 m 336 562 b 550 788 471 635 550 694 b 404 935 550 865 505 935 b 252 762 301 935 252 850 b 336 562 252 693 286 618 "},"!":{"ha":351,"x_min":0,"x_max":0,"o":"m 147 972 l 203 972 l 199 211 l 151 211 m 129 39 b 175 86 129 65 149 86 b 222 39 201 86 222 65 b 175 -7 222 14 201 -7 b 129 39 149 -7 129 14 "},"¡":{"ha":296,"x_min":0,"x_max":0,"o":"m 124 401 l 172 401 l 176 -361 l 120 -361 m 102 572 b 148 618 102 598 122 618 b 195 572 174 618 195 598 b 148 526 195 547 174 526 b 102 572 122 526 102 547 "},"?":{"ha":894,"x_min":0,"x_max":0,"o":"m 444 986 b 806 718 681 986 806 869 b 450 444 806 543 644 458 l 450 211 l 394 211 l 394 486 b 749 718 618 490 749 578 b 444 936 749 856 635 936 b 151 781 213 936 151 781 l 88 781 b 444 986 88 781 153 986 m 376 39 b 422 86 376 65 397 86 b 469 39 448 86 469 65 b 422 -7 469 14 448 -7 b 376 39 397 -7 376 14 "},"¿":{"ha":494,"x_min":0,"x_max":0,"o":"m 267 -374 b -95 -106 30 -374 -95 -258 b 261 168 -95 69 66 153 l 261 401 l 317 401 l 317 125 b -38 -106 93 122 -38 33 b 267 -324 -38 -244 76 -324 b 559 -170 498 -324 559 -170 l 623 -170 b 267 -374 623 -170 557 -374 m 334 572 b 288 526 334 547 314 526 b 241 572 262 526 241 547 b 288 618 241 598 262 618 b 334 572 314 618 334 598 "},".":{"ha":269,"x_min":0,"x_max":0,"o":"m 88 39 b 134 86 88 65 109 86 b 181 39 160 86 181 65 b 134 -7 181 14 160 -7 b 88 39 109 -7 88 14 "},"…":{"ha":649,"x_min":0,"x_max":0,"o":"m 88 39 b 134 86 88 65 109 86 b 181 39 160 86 181 65 b 134 -7 181 14 160 -7 b 88 39 109 -7 88 14 m 278 39 b 324 86 278 65 298 86 b 371 39 350 86 371 65 b 324 -7 371 14 350 -7 b 278 39 298 -7 278 14 m 468 39 b 514 86 468 65 488 86 b 561 39 540 86 561 65 b 514 -7 561 14 540 -7 b 468 39 488 -7 468 14 "},"·":{"ha":269,"x_min":0,"x_max":0,"o":"m 88 447 b 134 494 88 473 109 494 b 181 447 160 494 181 473 b 134 401 181 421 160 401 b 88 447 109 401 88 421 "},":":{"ha":269,"x_min":0,"x_max":0,"o":"m 88 39 b 134 86 88 65 109 86 b 181 39 160 86 181 65 b 134 -7 181 14 160 -7 b 88 39 109 -7 88 14 m 88 631 b 134 678 88 657 109 678 b 181 631 160 678 181 657 b 134 585 181 606 160 585 b 88 631 109 585 88 606 "},";":{"ha":297,"x_min":0,"x_max":0,"o":"m 116 631 b 162 678 116 657 136 678 b 209 631 188 678 209 657 b 162 585 209 606 188 585 b 116 631 136 585 116 606 m 129 140 l 186 140 l 65 -129 l 20 -129 "},",":{"ha":328,"x_min":0,"x_max":0,"o":"m 183 140 l 240 140 l 119 -129 l 75 -129 "},"(":{"ha":524,"x_min":0,"x_max":0,"o":"m 157 399 b 449 -170 157 -76 449 -170 l 427 -223 b 102 399 427 -223 102 -109 b 427 1022 102 907 427 1022 l 449 969 b 157 399 449 969 157 875 "},")":{"ha":524,"x_min":0,"x_max":0,"o":"m 366 399 b 75 969 366 875 75 969 l 96 1022 b 422 399 96 1022 422 907 b 96 -223 422 -109 96 -223 l 75 -170 b 366 399 75 -170 366 -76 "},"[":{"ha":419,"x_min":0,"x_max":0,"o":"m 178 -115 l 324 -115 l 324 -165 l 122 -165 l 122 972 l 324 972 l 324 922 l 178 922 "},"]":{"ha":419,"x_min":0,"x_max":0,"o":"m 241 922 l 95 922 l 95 972 l 297 972 l 297 -165 l 95 -165 l 95 -115 l 241 -115 "},"{":{"ha":569,"x_min":0,"x_max":0,"o":"m 88 428 b 264 683 202 446 264 508 b 481 986 264 875 323 986 l 481 936 b 320 679 359 936 320 838 b 150 403 320 512 254 432 b 320 127 254 374 320 294 b 481 -130 320 -32 359 -130 l 481 -180 b 264 123 323 -180 264 -69 b 88 378 264 298 202 359 l 88 428 "},"}":{"ha":569,"x_min":0,"x_max":0,"o":"m 481 378 b 304 123 367 359 304 298 b 88 -180 304 -69 245 -180 l 88 -130 b 249 127 210 -130 249 -32 b 419 403 249 294 315 374 b 249 679 315 432 249 512 b 88 936 249 838 210 936 l 88 986 b 304 683 245 986 304 875 b 481 428 304 508 367 446 "},"|":{"ha":259,"x_min":0,"x_max":0,"o":"m 102 972 l 157 972 l 157 -361 l 102 -361 "},"¦":{"ha":259,"x_min":0,"x_max":0,"o":"m 102 972 l 157 972 l 157 415 l 102 415 m 102 197 l 157 197 l 157 -361 l 102 -361 "},"⁄":{"ha":765,"x_min":0,"x_max":0,"o":"m 633 972 l 690 972 l 132 0 l 75 0 "},"/":{"ha":679,"x_min":0,"x_max":0,"o":"m 534 972 l 591 972 l 144 0 l 88 0 "},"\\":{"ha":692,"x_min":0,"x_max":0,"o":"m 597 0 l 541 0 l 95 972 l 151 972 "},"_":{"ha":685,"x_min":0,"x_max":0,"o":"m 75 -104 l 610 -104 l 610 -146 l 75 -146 "},"˙":{"ha":259,"x_min":0,"x_max":0,"o":"m 88 877 b 130 918 88 900 106 918 b 171 877 153 918 171 900 b 130 836 171 854 153 836 b 88 877 106 836 88 854 "},"¨":{"ha":496,"x_min":0,"x_max":0,"o":"m 88 877 b 130 918 88 900 106 918 b 171 877 153 918 171 900 b 130 836 171 854 153 836 b 88 877 106 836 88 854 m 326 877 b 367 918 326 900 344 918 b 408 877 390 918 408 900 b 367 836 408 854 390 836 b 326 877 344 836 326 854 "},"´":{"ha":406,"x_min":0,"x_max":0,"o":"m 264 972 l 331 972 l 123 766 l 75 766 "},"`":{"ha":406,"x_min":0,"x_max":0,"o":"m 331 766 l 282 766 l 75 972 l 142 972 "},"^":{"ha":667,"x_min":0,"x_max":0,"o":"m 579 597 l 534 597 l 334 922 l 134 597 l 88 597 l 315 972 l 353 972 "},"ˆ":{"ha":549,"x_min":0,"x_max":0,"o":"m 475 768 l 423 768 l 275 931 l 126 768 l 75 768 l 254 972 l 296 972 "},"ˇ":{"ha":549,"x_min":0,"x_max":0,"o":"m 296 768 l 254 768 l 75 972 l 126 972 l 275 810 l 423 972 l 475 972 "},"¯":{"ha":586,"x_min":0,"x_max":0,"o":"m 75 972 l 511 972 l 511 930 l 75 930 "},"˘":{"ha":556,"x_min":0,"x_max":0,"o":"m 278 832 b 75 972 102 832 75 972 l 114 972 b 278 871 114 972 143 871 b 442 972 413 871 442 972 l 481 972 b 278 832 481 972 454 832 "},"˚":{"ha":380,"x_min":0,"x_max":0,"o":"m 75 878 b 190 993 75 941 121 993 b 305 878 260 993 305 941 b 190 762 305 815 260 762 b 75 878 121 762 75 815 m 113 878 b 190 799 113 839 138 799 b 267 878 242 799 267 839 b 190 956 267 916 242 956 b 113 878 138 956 113 916 "},"˜":{"ha":522,"x_min":0,"x_max":0,"o":"m 248 889 b 180 930 228 911 212 930 b 119 872 128 930 119 872 l 75 872 b 180 972 75 872 86 972 b 274 920 228 972 251 945 b 342 878 294 897 310 878 b 403 937 393 878 403 937 l 447 937 b 342 836 447 937 435 836 b 248 889 294 836 271 863 "},"~":{"ha":722,"x_min":0,"x_max":0,"o":"m 348 480 b 235 551 310 525 287 551 b 140 461 159 551 140 461 l 88 461 b 235 596 88 461 111 596 b 374 522 304 596 340 562 b 487 451 412 477 435 451 b 582 541 562 451 582 541 l 633 541 b 487 406 633 541 610 406 b 348 480 418 406 381 441 "},"˝":{"ha":458,"x_min":0,"x_max":0,"o":"m 327 972 l 370 972 l 263 743 l 235 743 m 181 972 l 224 972 l 118 743 l 88 743 "},"˛":{"ha":295,"x_min":0,"x_max":0,"o":"m 220 0 b 115 -117 220 0 115 -26 b 214 -198 115 -202 214 -198 l 214 -241 b 75 -117 163 -245 68 -218 b 177 0 82 -27 177 0 "},"¸":{"ha":401,"x_min":0,"x_max":0,"o":"m 93 -237 b 279 -191 157 -263 271 -270 b 125 -136 286 -134 219 -130 l 182 24 l 225 24 l 184 -95 b 326 -193 267 -94 330 -117 b 75 -275 318 -309 162 -317 "},"'":{"ha":205,"x_min":0,"x_max":0,"o":"m 75 972 l 131 972 l 123 703 l 84 703 "},"\"":{"ha":348,"x_min":0,"x_max":0,"o":"m 75 972 l 131 972 l 123 703 l 84 703 m 217 972 l 273 972 l 265 703 l 227 703 "},"‘":{"ha":260,"x_min":0,"x_max":0,"o":"m 104 704 l 47 704 l 168 972 l 213 972 "},"’":{"ha":260,"x_min":0,"x_max":0,"o":"m 156 972 l 213 972 l 92 704 l 47 704 "},"‚":{"ha":281,"x_min":0,"x_max":0,"o":"m 149 140 l 206 140 l 85 -129 l 41 -129 "},"„":{"ha":437,"x_min":0,"x_max":0,"o":"m 149 140 l 206 140 l 85 -129 l 41 -129 m 305 140 l 362 140 l 241 -129 l 197 -129 "},"“":{"ha":416,"x_min":0,"x_max":0,"o":"m 260 704 l 203 704 l 324 972 l 369 972 m 104 704 l 47 704 l 168 972 l 213 972 "},"”":{"ha":416,"x_min":0,"x_max":0,"o":"m 156 972 l 213 972 l 92 704 l 47 704 m 312 972 l 369 972 l 248 704 l 203 704 "},"@":{"ha":1190,"x_min":0,"x_max":0,"o":"m 978 45 b 595 -122 978 45 849 -122 b 115 378 314 -122 115 82 b 595 878 115 673 314 878 b 1074 378 876 878 1074 673 b 897 170 1074 252 1008 171 b 752 329 785 170 754 289 b 545 117 735 235 672 117 b 351 378 393 117 333 245 b 624 633 380 585 527 633 b 795 597 718 633 795 597 b 785 381 791 524 787 451 b 897 212 783 290 824 212 b 1024 378 980 212 1024 284 b 595 834 1024 646 848 834 b 165 378 341 834 165 646 b 595 -79 165 110 341 -79 b 913 45 795 -79 913 45 m 744 571 b 625 591 744 571 701 591 b 401 378 534 594 423 542 b 546 159 389 267 427 159 b 730 408 637 159 711 237 b 744 571 739 472 744 571 "},"©":{"ha":1176,"x_min":0,"x_max":0,"o":"m 88 486 b 588 986 88 762 312 986 b 1088 486 864 986 1088 762 b 588 -14 1088 210 864 -14 b 88 486 312 -14 88 210 m 132 486 b 588 26 132 230 332 26 b 1044 486 844 26 1044 230 b 588 947 1044 743 844 947 b 132 486 332 947 132 743 m 357 486 b 589 242 357 353 442 242 b 757 326 712 242 757 326 l 806 326 b 589 203 806 326 750 203 b 314 486 425 203 314 323 b 589 768 314 648 425 768 b 806 646 750 768 806 646 l 757 646 b 589 729 757 646 712 729 b 357 486 442 729 357 618 "},"®":{"ha":722,"x_min":0,"x_max":0,"o":"m 259 511 l 259 861 l 391 861 b 484 767 456 861 484 817 b 397 673 484 717 451 677 l 495 511 l 464 511 l 366 673 l 287 673 l 287 511 m 287 835 l 287 699 l 391 699 b 454 767 433 699 454 727 b 391 835 454 807 433 835 m 61 686 b 361 986 61 852 195 986 b 661 686 526 986 661 852 b 361 387 661 521 526 387 b 61 686 195 387 61 521 m 91 686 b 361 416 91 537 212 416 b 631 686 510 416 631 537 b 361 956 631 836 510 956 b 91 686 212 956 91 836 "},"™":{"ha":828,"x_min":0,"x_max":0,"o":"m 358 972 l 358 940 l 216 940 l 216 586 l 182 586 l 182 940 l 41 940 l 41 972 m 606 635 l 743 972 l 787 972 l 787 586 l 753 586 l 753 916 l 621 586 l 592 586 l 459 916 l 459 586 l 425 586 l 425 972 l 470 972 "},"*":{"ha":545,"x_min":0,"x_max":0,"o":"m 273 705 l 149 533 l 118 555 l 243 726 l 41 789 l 53 828 l 254 761 l 252 972 l 294 972 l 291 761 l 492 828 l 505 789 l 302 726 l 427 555 l 397 533 "},"∙":{"ha":394,"x_min":0,"x_max":0,"o":"m 54 490 b 197 633 54 568 118 633 b 340 490 275 633 340 568 b 197 347 340 411 275 347 b 54 490 118 347 54 411 "},"•":{"ha":435,"x_min":0,"x_max":0,"o":"m 75 490 b 217 633 75 568 138 633 b 360 490 296 633 360 568 b 217 347 360 411 296 347 b 75 490 138 347 75 411 "},"§":{"ha":838,"x_min":0,"x_max":0,"o":"m 763 251 b 668 54 763 165 730 98 b 743 -119 721 9 743 -48 b 424 -361 743 -269 614 -361 b 113 -159 144 -361 113 -159 l 170 -159 b 424 -311 170 -159 195 -311 b 687 -119 584 -311 687 -239 b 424 93 687 -20 633 56 b 75 374 188 134 75 214 b 169 572 75 459 107 527 b 95 744 117 616 95 673 b 414 986 95 894 223 986 b 725 785 693 986 725 785 l 668 785 b 414 936 668 785 643 936 b 151 744 254 936 151 865 b 414 532 151 646 205 569 b 763 251 650 491 763 411 m 414 477 b 216 539 330 492 265 512 b 130 374 160 503 130 446 b 424 148 130 250 212 184 b 621 86 507 133 572 113 b 707 251 677 123 707 178 b 414 477 707 376 625 441 "},"¶":{"ha":741,"x_min":0,"x_max":0,"o":"m 667 972 l 667 922 l 586 922 l 586 0 l 530 0 l 530 922 l 464 922 l 464 0 l 408 0 l 408 432 l 314 432 b 61 702 138 432 61 562 b 314 972 61 843 138 972 m 314 922 b 117 702 172 922 117 815 b 314 482 117 589 172 482 l 408 482 l 408 922 "},"–":{"ha":939,"x_min":0,"x_max":0,"o":"m 102 454 l 837 454 l 837 412 l 102 412 "},"—":{"ha":1165,"x_min":0,"x_max":0,"o":"m 102 454 l 1063 454 l 1063 412 l 102 412 "},"†":{"ha":689,"x_min":0,"x_max":0,"o":"m 372 -361 l 317 -361 l 317 621 l 102 621 l 102 671 l 317 671 l 317 972 l 372 972 l 372 671 l 587 671 l 587 621 l 372 621 "},"‡":{"ha":689,"x_min":0,"x_max":0,"o":"m 372 671 l 587 671 l 587 621 l 372 621 l 372 -9 l 587 -9 l 587 -60 l 372 -60 l 372 -361 l 317 -361 l 317 -60 l 102 -60 l 102 -9 l 317 -9 l 317 621 l 102 621 l 102 671 l 317 671 l 317 972 l 372 972 "},"ª":{"ha":564,"x_min":0,"x_max":0,"o":"m 41 728 b 282 979 41 867 144 979 b 472 864 370 979 436 933 l 472 972 l 524 972 l 524 484 l 472 484 l 472 593 b 282 477 436 524 370 477 b 41 728 144 477 41 590 m 92 728 b 282 524 92 617 171 524 b 472 728 393 524 472 617 b 282 933 472 840 393 933 b 92 728 171 933 92 840 "},"º":{"ha":564,"x_min":0,"x_max":0,"o":"m 41 728 b 282 979 41 867 144 979 b 524 728 420 979 524 867 b 282 477 524 590 420 477 b 41 728 144 477 41 590 m 92 728 b 282 524 92 617 171 524 b 472 728 393 524 472 617 b 282 933 472 840 393 933 b 92 728 171 933 92 840 "},"ⁿ":{"ha":514,"x_min":0,"x_max":0,"o":"m 422 734 b 257 933 422 858 368 933 b 92 734 146 933 92 858 l 92 484 l 41 484 l 41 972 l 92 972 l 92 882 b 261 979 92 882 127 979 b 473 734 387 979 473 894 l 473 484 l 422 484 l 422 734 "},"⁰":{"ha":510,"x_min":0,"x_max":0,"o":"m 41 728 b 255 979 41 867 121 979 b 469 728 389 979 469 867 b 255 477 469 590 389 477 b 41 728 121 477 41 590 m 92 728 b 255 524 92 610 157 524 b 418 728 353 524 418 610 b 255 933 418 846 353 933 b 92 728 157 933 92 846 "},"¹":{"ha":244,"x_min":0,"x_max":0,"o":"m 41 863 l 164 972 l 203 972 l 203 484 l 152 484 l 152 891 l 77 825 "},"²":{"ha":439,"x_min":0,"x_max":0,"o":"m 41 831 b 230 979 41 831 71 979 b 391 840 317 979 391 928 b 288 667 391 761 338 713 l 140 530 l 398 530 l 398 484 l 41 484 l 41 505 l 256 701 b 340 840 304 745 340 783 b 230 933 340 891 300 933 b 95 831 123 933 95 831 "},"³":{"ha":443,"x_min":0,"x_max":0,"o":"m 96 598 b 225 524 96 598 121 524 b 351 625 319 524 351 575 b 169 709 351 692 294 709 l 169 751 b 339 844 283 751 339 787 b 225 933 339 884 307 933 b 102 852 125 933 102 852 l 47 852 b 225 979 47 852 77 979 b 391 844 317 979 391 925 b 295 736 391 793 355 747 b 402 625 342 732 402 697 b 225 477 402 525 321 477 b 41 598 62 477 41 598 "},"⁴":{"ha":488,"x_min":0,"x_max":0,"o":"m 321 484 l 321 623 l 41 623 l 41 648 l 326 972 l 372 972 l 372 669 l 447 669 l 447 623 l 372 623 l 372 484 m 321 669 l 321 899 l 119 669 "},"⁵":{"ha":422,"x_min":0,"x_max":0,"o":"m 205 524 b 329 635 282 524 329 564 b 205 747 329 707 282 747 b 43 711 130 747 43 711 l 62 972 l 353 972 l 353 926 l 111 926 l 100 777 b 205 793 100 777 148 793 b 382 635 330 793 382 715 b 205 477 382 555 330 477 b 41 598 54 477 41 598 l 93 598 b 205 524 93 598 109 524 "},"⁶":{"ha":450,"x_min":0,"x_max":0,"o":"m 410 640 b 226 477 410 543 336 477 b 42 638 116 477 47 543 b 228 979 32 848 85 979 b 383 875 354 979 383 875 l 331 875 b 228 933 331 875 309 933 b 92 733 129 933 99 834 b 226 802 92 733 129 802 b 410 640 336 802 410 736 m 357 640 b 226 755 357 704 310 755 b 94 640 142 755 94 704 b 226 524 94 575 142 524 b 357 640 310 524 357 575 "},"⁷":{"ha":421,"x_min":0,"x_max":0,"o":"m 41 972 l 380 972 l 380 947 l 170 484 l 117 484 l 318 926 l 41 926 "},"⁸":{"ha":457,"x_min":0,"x_max":0,"o":"m 229 477 b 41 620 121 477 41 529 b 141 736 41 679 88 724 b 54 845 94 749 54 793 b 229 979 54 930 127 979 b 404 845 330 979 404 930 b 316 736 404 793 363 749 b 416 620 369 724 416 679 b 229 477 416 529 336 477 m 229 524 b 365 620 316 524 365 564 b 229 716 365 675 316 716 b 92 620 141 716 92 675 b 229 524 92 564 141 524 m 352 845 b 229 933 352 897 308 933 b 105 845 149 933 105 897 b 229 757 105 793 149 757 b 352 845 308 757 352 793 "},"⁹":{"ha":450,"x_min":0,"x_max":0,"o":"m 41 817 b 224 979 41 913 114 979 b 408 819 334 979 404 913 b 222 477 418 609 366 477 b 67 582 96 477 67 582 l 119 582 b 222 524 119 582 141 524 b 358 724 321 524 351 623 b 224 655 358 724 321 655 b 41 817 114 655 41 721 m 93 817 b 224 701 93 753 140 701 b 356 817 309 701 356 753 b 224 933 356 882 309 933 b 93 817 140 933 93 882 "},"₀":{"ha":510,"x_min":0,"x_max":0,"o":"m 41 0 b 255 251 41 138 121 251 b 469 0 389 251 469 138 b 255 -251 469 -138 389 -251 b 41 0 121 -251 41 -138 m 92 0 b 255 -205 92 -118 157 -205 b 418 0 353 -205 418 -118 b 255 205 418 118 353 205 b 92 0 157 205 92 118 "},"₁":{"ha":244,"x_min":0,"x_max":0,"o":"m 41 134 l 164 244 l 203 244 l 203 -244 l 152 -244 l 152 163 l 77 97 "},"₂":{"ha":439,"x_min":0,"x_max":0,"o":"m 41 103 b 230 251 41 103 71 251 b 391 112 317 251 391 199 b 288 -62 391 33 338 -16 l 140 -198 l 398 -198 l 398 -244 l 41 -244 l 41 -224 l 256 -27 b 340 112 304 17 340 54 b 230 205 340 163 300 205 b 95 103 123 205 95 103 "},"₃":{"ha":443,"x_min":0,"x_max":0,"o":"m 96 -130 b 225 -205 96 -130 121 -205 b 351 -103 319 -205 351 -153 b 169 -19 351 -37 294 -19 l 169 23 b 339 116 283 23 339 58 b 225 205 339 155 307 205 b 102 124 125 205 102 124 l 47 124 b 225 251 47 124 77 251 b 391 116 317 251 391 197 b 295 7 391 64 355 19 b 402 -103 342 4 402 -31 b 225 -251 402 -203 321 -251 b 41 -130 62 -251 41 -130 "},"₄":{"ha":488,"x_min":0,"x_max":0,"o":"m 321 -244 l 321 -105 l 41 -105 l 41 -81 l 326 244 l 372 244 l 372 -59 l 447 -59 l 447 -105 l 372 -105 l 372 -244 m 321 -59 l 321 171 l 119 -59 "},"₅":{"ha":422,"x_min":0,"x_max":0,"o":"m 205 -205 b 329 -93 282 -205 329 -165 b 205 19 329 -21 282 19 b 43 -17 130 19 43 -17 l 62 244 l 353 244 l 353 198 l 111 198 l 100 49 b 205 65 100 49 148 65 b 382 -93 330 65 382 -13 b 205 -251 382 -173 330 -251 b 41 -130 54 -251 41 -130 l 93 -130 b 205 -205 93 -130 109 -205 "},"₆":{"ha":450,"x_min":0,"x_max":0,"o":"m 410 -89 b 226 -251 410 -185 336 -251 b 42 -90 116 -251 47 -185 b 228 251 32 119 85 251 b 383 146 354 251 383 146 l 331 146 b 228 205 331 146 309 205 b 92 5 129 205 99 106 b 226 73 92 5 129 73 b 410 -89 336 73 410 7 m 357 -89 b 226 27 357 -24 310 27 b 94 -89 142 27 94 -24 b 226 -205 94 -153 142 -205 b 357 -89 310 -205 357 -153 "},"₇":{"ha":421,"x_min":0,"x_max":0,"o":"m 41 244 l 380 244 l 380 219 l 170 -244 l 117 -244 l 318 198 l 41 198 "},"₈":{"ha":457,"x_min":0,"x_max":0,"o":"m 229 -251 b 41 -109 121 -251 41 -199 b 141 7 41 -50 88 -4 b 54 117 94 20 54 64 b 229 251 54 201 127 251 b 404 117 330 251 404 201 b 316 7 404 64 363 20 b 416 -109 369 -4 416 -50 b 229 -251 416 -199 336 -251 m 229 -205 b 365 -109 316 -205 365 -164 b 229 -12 365 -53 316 -12 b 92 -109 141 -12 92 -53 b 229 -205 92 -164 141 -205 m 352 117 b 229 205 352 168 308 205 b 105 117 149 205 105 168 b 229 28 105 65 149 28 b 352 117 308 28 352 65 "},"₉":{"ha":450,"x_min":0,"x_max":0,"o":"m 41 89 b 224 251 41 185 114 251 b 408 90 334 251 404 185 b 222 -251 418 -119 366 -251 b 67 -146 96 -251 67 -146 l 119 -146 b 222 -205 119 -146 141 -205 b 358 -5 321 -205 351 -106 b 224 -73 358 -5 321 -73 b 41 89 114 -73 41 -7 m 93 89 b 224 -27 93 24 140 -27 b 356 89 309 -27 356 24 b 224 205 356 153 309 205 b 93 89 140 205 93 153 "},"⁺":{"ha":354,"x_min":0,"x_max":0,"o":"m 153 591 l 153 704 l 41 704 l 41 750 l 153 750 l 153 863 l 201 863 l 201 750 l 313 750 l 313 704 l 201 704 l 201 591 "},"⁻":{"ha":330,"x_min":0,"x_max":0,"o":"m 41 704 l 41 750 l 289 750 l 289 704 "},"⁼":{"ha":330,"x_min":0,"x_max":0,"o":"m 41 640 l 41 686 l 289 686 l 289 640 m 41 766 l 41 812 l 289 812 l 289 766 "},"⁽":{"ha":246,"x_min":0,"x_max":0,"o":"m 41 729 b 177 987 41 922 177 987 l 205 947 b 92 729 205 947 92 894 b 205 511 92 564 205 511 l 177 471 b 41 729 177 471 41 536 "},"⁾":{"ha":246,"x_min":0,"x_max":0,"o":"m 205 729 b 69 471 205 536 69 471 l 41 511 b 154 729 41 511 154 564 b 41 947 154 894 41 947 l 69 987 b 205 729 69 987 205 922 "},"₍":{"ha":246,"x_min":0,"x_max":0,"o":"m 41 0 b 177 258 41 193 177 258 l 205 218 b 92 0 205 218 92 165 b 205 -218 92 -165 205 -218 l 177 -258 b 41 0 177 -258 41 -193 "},"₎":{"ha":246,"x_min":0,"x_max":0,"o":"m 205 0 b 69 -258 205 -193 69 -258 l 41 -218 b 154 0 41 -218 154 -165 b 41 218 154 165 41 218 l 69 258 b 205 0 69 258 205 193 "},"½":{"ha":988,"x_min":0,"x_max":0,"o":"m 516 347 b 705 495 516 347 546 495 b 866 356 792 495 866 444 b 763 182 866 277 813 229 l 614 46 l 873 46 l 873 0 l 515 0 l 515 20 l 730 217 b 814 356 779 261 814 298 b 705 449 814 407 774 449 b 570 347 597 449 570 347 m 121 863 l 245 972 l 284 972 l 284 484 l 233 484 l 233 891 l 158 825 m 673 972 l 731 972 l 173 0 l 115 0 "},"⅓":{"ha":998,"x_min":0,"x_max":0,"o":"m 121 863 l 245 972 l 284 972 l 284 484 l 233 484 l 233 891 l 158 825 m 576 114 b 705 39 576 114 602 39 b 831 141 799 39 831 91 b 649 225 831 208 774 225 l 649 267 b 819 360 764 267 819 302 b 705 449 819 399 787 449 b 583 368 605 449 583 368 l 528 368 b 705 495 528 368 557 495 b 871 360 797 495 871 441 b 775 252 871 309 836 263 b 882 141 822 248 882 213 b 705 -7 882 41 801 -7 b 521 114 543 -7 521 114 m 673 972 l 731 972 l 173 0 l 115 0 "},"¼":{"ha":935,"x_min":0,"x_max":0,"o":"m 673 972 l 731 972 l 173 0 l 115 0 m 121 863 l 245 972 l 284 972 l 284 484 l 233 484 l 233 891 l 158 825 m 693 0 l 693 139 l 413 139 l 413 163 l 698 488 l 745 488 l 745 185 l 819 185 l 819 139 l 745 139 l 745 0 m 693 185 l 693 415 l 492 185 "},"⅛":{"ha":1006,"x_min":0,"x_max":0,"o":"m 673 972 l 731 972 l 173 0 l 115 0 m 121 863 l 245 972 l 284 972 l 284 484 l 233 484 l 233 891 l 158 825 m 703 -7 b 515 136 595 -7 515 45 b 616 252 515 195 563 240 b 528 361 568 264 528 309 b 703 495 528 446 602 495 b 878 361 804 495 878 446 b 791 252 878 309 838 264 b 891 136 844 240 891 195 b 703 -7 891 45 811 -7 m 703 39 b 840 136 791 39 840 80 b 703 232 840 191 791 232 b 567 136 616 232 567 191 b 703 39 567 80 616 39 m 827 361 b 703 449 827 412 783 449 b 580 361 624 449 580 412 b 703 273 580 309 624 273 b 827 361 783 273 827 309 "},"⅔":{"ha":1153,"x_min":0,"x_max":0,"o":"m 731 114 b 861 39 731 114 757 39 b 986 141 954 39 986 91 b 804 225 986 208 930 225 l 804 267 b 975 360 919 267 975 302 b 861 449 975 399 942 449 b 738 368 760 449 738 368 l 683 368 b 861 495 683 368 712 495 b 1026 360 952 495 1026 441 b 930 252 1026 309 991 263 b 1038 141 977 248 1038 213 b 861 -7 1038 41 956 -7 b 676 114 698 -7 676 114 m 829 972 l 886 972 l 328 0 l 271 0 m 116 831 b 304 979 116 831 146 979 b 466 840 392 979 466 928 b 363 667 466 761 413 713 l 214 530 l 473 530 l 473 484 l 115 484 l 115 505 l 330 701 b 414 840 379 745 414 783 b 304 933 414 891 374 933 b 170 831 197 933 170 831 "},"¾":{"ha":1085,"x_min":0,"x_max":0,"o":"m 824 972 l 882 972 l 323 0 l 266 0 m 844 0 l 844 139 l 564 139 l 564 163 l 848 488 l 895 488 l 895 185 l 970 185 l 970 139 l 895 139 l 895 0 m 844 185 l 844 415 l 642 185 m 170 598 b 300 524 170 598 196 524 b 425 625 393 524 425 575 b 243 709 425 692 369 709 l 243 751 b 414 844 358 751 414 787 b 300 933 414 884 381 933 b 177 852 199 933 177 852 l 122 852 b 300 979 122 852 151 979 b 465 844 391 979 465 925 b 370 736 465 793 430 747 b 477 625 416 732 477 697 b 300 477 477 525 395 477 b 115 598 137 477 115 598 "},"⅜":{"ha":1157,"x_min":0,"x_max":0,"o":"m 170 598 b 300 524 170 598 196 524 b 425 625 393 524 425 575 b 243 709 425 692 369 709 l 243 751 b 414 844 358 751 414 787 b 300 933 414 884 381 933 b 177 852 199 933 177 852 l 122 852 b 300 979 122 852 151 979 b 465 844 391 979 465 925 b 370 736 465 793 430 747 b 477 625 416 732 477 697 b 300 477 477 525 395 477 b 115 598 137 477 115 598 m 824 972 l 882 972 l 323 0 l 266 0 m 854 -7 b 666 136 746 -7 666 45 b 766 252 666 195 713 240 b 679 361 719 264 679 309 b 854 495 679 446 753 495 b 1029 361 955 495 1029 446 b 941 252 1029 309 989 264 b 1042 136 994 240 1042 195 b 854 -7 1042 45 962 -7 m 854 39 b 990 136 941 39 990 80 b 854 232 990 191 941 232 b 718 136 766 232 718 191 b 854 39 718 80 766 39 m 977 361 b 854 449 977 412 933 449 b 730 361 774 449 730 412 b 854 273 730 309 774 273 b 977 361 933 273 977 309 "},"⅝":{"ha":1128,"x_min":0,"x_max":0,"o":"m 795 972 l 853 972 l 295 0 l 237 0 m 825 -7 b 637 136 718 -7 637 45 b 738 252 637 195 685 240 b 650 361 690 264 650 309 b 825 495 650 446 724 495 b 1000 361 926 495 1000 446 b 913 252 1000 309 960 264 b 1013 136 966 240 1013 195 b 825 -7 1013 45 933 -7 m 825 39 b 962 136 913 39 962 80 b 825 232 962 191 913 232 b 689 136 738 232 689 191 b 825 39 689 80 738 39 m 949 361 b 825 449 949 412 905 449 b 702 361 746 449 702 412 b 825 273 702 309 746 273 b 949 361 905 273 949 309 m 279 524 b 404 635 357 524 404 564 b 279 747 404 707 357 747 b 118 711 205 747 118 711 l 137 972 l 428 972 l 428 926 l 186 926 l 175 777 b 279 793 175 777 222 793 b 456 635 404 793 456 715 b 279 477 456 555 404 477 b 115 598 129 477 115 598 l 168 598 b 279 524 168 598 183 524 "},"⅞":{"ha":1048,"x_min":0,"x_max":0,"o":"m 715 972 l 773 972 l 215 0 l 157 0 m 745 -7 b 557 136 637 -7 557 45 b 658 252 557 195 605 240 b 570 361 610 264 570 309 b 745 495 570 446 644 495 b 920 361 846 495 920 446 b 833 252 920 309 880 264 b 933 136 886 240 933 195 b 745 -7 933 45 853 -7 m 745 39 b 882 136 833 39 882 80 b 745 232 882 191 833 232 b 609 136 658 232 609 191 b 745 39 609 80 658 39 m 869 361 b 745 449 869 412 825 449 b 622 361 666 449 622 412 b 745 273 622 309 666 273 b 869 361 825 273 869 309 m 115 972 l 455 972 l 455 947 l 245 484 l 191 484 l 393 926 l 115 926 "},"À":{"ha":1034,"x_min":0,"x_max":0,"o":"m 777 310 l 256 310 l 115 0 l 54 0 l 503 972 l 531 972 l 979 0 l 919 0 m 279 360 l 754 360 l 517 880 m 536 1067 l 488 1067 l 280 1274 l 347 1274 "},"Á":{"ha":1034,"x_min":0,"x_max":0,"o":"m 777 310 l 256 310 l 115 0 l 54 0 l 503 972 l 531 972 l 979 0 l 919 0 m 279 360 l 754 360 l 517 880 m 684 1274 l 751 1274 l 544 1067 l 495 1067 "},"Â":{"ha":1034,"x_min":0,"x_max":0,"o":"m 777 310 l 256 310 l 115 0 l 54 0 l 503 972 l 531 972 l 979 0 l 919 0 m 279 360 l 754 360 l 517 880 m 717 1048 l 665 1048 l 517 1211 l 368 1048 l 317 1048 l 496 1253 l 538 1253 "},"Ā":{"ha":1034,"x_min":0,"x_max":0,"o":"m 777 310 l 256 310 l 115 0 l 54 0 l 503 972 l 531 972 l 979 0 l 919 0 m 279 360 l 754 360 l 517 880 m 298 1131 l 735 1131 l 735 1089 l 298 1089 "},"Ã":{"ha":1034,"x_min":0,"x_max":0,"o":"m 777 310 l 256 310 l 115 0 l 54 0 l 503 972 l 531 972 l 979 0 l 919 0 m 279 360 l 754 360 l 517 880 m 504 1122 b 436 1164 484 1145 468 1164 b 375 1105 385 1164 375 1105 l 331 1105 b 436 1206 331 1105 342 1206 b 530 1153 484 1206 507 1179 b 598 1112 550 1131 566 1112 b 659 1170 650 1112 659 1170 l 703 1170 b 598 1069 703 1170 692 1069 b 504 1122 550 1069 527 1097 "},"Ä":{"ha":1034,"x_min":0,"x_max":0,"o":"m 777 310 l 256 310 l 115 0 l 54 0 l 503 972 l 531 972 l 979 0 l 919 0 m 279 360 l 754 360 l 517 880 m 357 1121 b 398 1162 357 1144 375 1162 b 439 1121 421 1162 439 1144 b 398 1080 439 1098 421 1080 b 357 1121 375 1080 357 1098 m 594 1121 b 635 1162 594 1144 612 1162 b 677 1121 659 1162 677 1144 b 635 1080 677 1098 659 1080 b 594 1121 612 1080 594 1098 "},"Å":{"ha":1034,"x_min":0,"x_max":0,"o":"m 777 310 l 256 310 l 115 0 l 54 0 l 503 972 l 531 972 l 979 0 l 919 0 m 279 360 l 754 360 l 517 880 m 401 1177 b 517 1293 401 1240 448 1293 b 632 1177 587 1293 632 1240 b 517 1062 632 1115 587 1062 b 401 1177 448 1062 401 1115 m 439 1177 b 517 1099 439 1139 465 1099 b 594 1177 569 1099 594 1139 b 517 1256 594 1216 569 1256 b 439 1177 465 1256 439 1216 "},"Ă":{"ha":1034,"x_min":0,"x_max":0,"o":"m 777 310 l 256 310 l 115 0 l 54 0 l 503 972 l 531 972 l 979 0 l 919 0 m 279 360 l 754 360 l 517 880 m 517 1069 b 313 1210 340 1069 313 1210 l 353 1210 b 517 1109 353 1210 382 1109 b 681 1210 652 1109 681 1210 l 720 1210 b 517 1069 720 1210 693 1069 "},"Ą":{"ha":1034,"x_min":0,"x_max":0,"o":"m 777 310 l 256 310 l 115 0 l 54 0 l 503 972 l 531 972 l 979 0 b 873 -117 974 -1 873 -28 b 972 -198 873 -202 972 -198 l 972 -241 b 834 -117 922 -245 827 -218 b 935 0 840 -29 931 -1 l 919 0 m 279 360 l 754 360 l 517 880 "},"Ć":{"ha":1000,"x_min":0,"x_max":0,"o":"m 146 486 b 561 37 146 250 311 37 b 862 184 773 37 862 184 l 925 184 b 561 -14 925 184 825 -14 b 88 486 285 -14 88 210 b 561 986 88 762 285 986 b 925 788 825 986 925 788 l 862 788 b 561 936 862 788 773 936 b 146 486 311 936 146 723 m 717 1274 l 784 1274 l 576 1067 l 528 1067 "},"Č":{"ha":1000,"x_min":0,"x_max":0,"o":"m 146 486 b 561 37 146 250 311 37 b 862 184 773 37 862 184 l 925 184 b 561 -14 925 184 825 -14 b 88 486 285 -14 88 210 b 561 986 88 762 285 986 b 925 788 825 986 925 788 l 862 788 b 561 936 862 788 773 936 b 146 486 311 936 146 723 m 576 1082 l 534 1082 l 355 1286 l 406 1286 l 555 1124 l 703 1286 l 755 1286 "},"Ĉ":{"ha":1000,"x_min":0,"x_max":0,"o":"m 146 486 b 561 37 146 250 311 37 b 862 184 773 37 862 184 l 925 184 b 561 -14 925 184 825 -14 b 88 486 285 -14 88 210 b 561 986 88 762 285 986 b 925 788 825 986 925 788 l 862 788 b 561 936 862 788 773 936 b 146 486 311 936 146 723 m 745 1082 l 694 1082 l 545 1245 l 397 1082 l 345 1082 l 524 1286 l 566 1286 "},"Ċ":{"ha":1000,"x_min":0,"x_max":0,"o":"m 146 486 b 561 37 146 250 311 37 b 862 184 773 37 862 184 l 925 184 b 561 -14 925 184 825 -14 b 88 486 285 -14 88 210 b 561 986 88 762 285 986 b 925 788 825 986 925 788 l 862 788 b 561 936 862 788 773 936 b 146 486 311 936 146 723 m 511 1121 b 553 1162 511 1144 530 1162 b 594 1121 576 1162 594 1144 b 553 1080 594 1098 576 1080 b 511 1121 530 1080 511 1098 "},"Ç":{"ha":1000,"x_min":0,"x_max":0,"o":"m 447 -237 b 633 -191 511 -263 625 -270 b 479 -136 640 -134 573 -130 l 523 -12 b 88 486 267 7 88 223 b 561 986 88 762 285 986 b 925 788 825 986 925 788 l 862 788 b 561 936 862 788 773 936 b 146 486 311 936 146 723 b 561 37 146 250 311 37 b 862 184 773 37 862 184 l 925 184 b 566 -14 925 184 826 -11 l 538 -95 b 680 -193 621 -94 684 -117 b 429 -275 672 -309 516 -317 "},"Ď":{"ha":955,"x_min":0,"x_max":0,"o":"m 115 0 l 115 972 l 421 972 b 867 486 704 972 867 749 b 421 0 867 224 704 0 m 421 50 b 808 486 684 50 808 264 b 421 922 808 708 684 922 l 171 922 l 171 50 l 421 50 m 411 1062 l 369 1062 l 190 1266 l 241 1266 l 390 1103 l 538 1266 l 590 1266 "},"Đ":{"ha":1103,"x_min":0,"x_max":0,"o":"m 264 0 l 264 461 l 75 461 l 75 511 l 264 511 l 264 972 l 570 972 b 1015 486 852 972 1015 749 b 570 0 1015 224 852 0 m 570 50 b 957 486 832 50 957 264 b 570 922 957 708 832 922 l 319 922 l 319 511 l 557 511 l 557 461 l 319 461 l 319 50 l 570 50 "},"Ð":{"ha":1103,"x_min":0,"x_max":0,"o":"m 264 0 l 264 461 l 75 461 l 75 511 l 264 511 l 264 972 l 570 972 b 1015 486 852 972 1015 749 b 570 0 1015 224 852 0 m 570 50 b 957 486 832 50 957 264 b 570 922 957 708 832 922 l 319 922 l 319 511 l 557 511 l 557 461 l 319 461 l 319 50 l 570 50 "},"È":{"ha":861,"x_min":0,"x_max":0,"o":"m 683 522 l 683 472 l 171 472 l 171 50 l 760 50 l 760 0 l 115 0 l 115 972 l 755 972 l 755 922 l 171 922 l 171 522 m 458 1067 l 410 1067 l 202 1274 l 269 1274 "},"É":{"ha":861,"x_min":0,"x_max":0,"o":"m 683 522 l 683 472 l 171 472 l 171 50 l 760 50 l 760 0 l 115 0 l 115 972 l 755 972 l 755 922 l 171 922 l 171 522 m 591 1274 l 659 1274 l 451 1067 l 402 1067 "},"Ě":{"ha":861,"x_min":0,"x_max":0,"o":"m 683 522 l 683 472 l 171 472 l 171 50 l 760 50 l 760 0 l 115 0 l 115 972 l 755 972 l 755 922 l 171 922 l 171 522 m 454 1062 l 412 1062 l 233 1266 l 284 1266 l 433 1103 l 581 1266 l 633 1266 "},"Ê":{"ha":861,"x_min":0,"x_max":0,"o":"m 683 522 l 683 472 l 171 472 l 171 50 l 760 50 l 760 0 l 115 0 l 115 972 l 755 972 l 755 922 l 171 922 l 171 522 m 635 1062 l 583 1062 l 435 1225 l 286 1062 l 235 1062 l 414 1266 l 456 1266 "},"Ĕ":{"ha":861,"x_min":0,"x_max":0,"o":"m 683 522 l 683 472 l 171 472 l 171 50 l 760 50 l 760 0 l 115 0 l 115 972 l 755 972 l 755 922 l 171 922 l 171 522 m 430 1069 b 227 1210 254 1069 227 1210 l 266 1210 b 430 1109 266 1210 295 1109 b 594 1210 565 1109 594 1210 l 633 1210 b 430 1069 633 1210 606 1069 "},"Ë":{"ha":861,"x_min":0,"x_max":0,"o":"m 683 522 l 683 472 l 171 472 l 171 50 l 760 50 l 760 0 l 115 0 l 115 972 l 755 972 l 755 922 l 171 922 l 171 522 m 275 1121 b 317 1162 275 1144 294 1162 b 358 1121 340 1162 358 1144 b 317 1080 358 1098 340 1080 b 275 1121 294 1080 275 1098 m 513 1121 b 554 1162 513 1144 531 1162 b 595 1121 577 1162 595 1144 b 554 1080 595 1098 577 1080 b 513 1121 531 1080 513 1098 "},"Ē":{"ha":861,"x_min":0,"x_max":0,"o":"m 683 522 l 683 472 l 171 472 l 171 50 l 760 50 l 760 0 l 115 0 l 115 972 l 755 972 l 755 922 l 171 922 l 171 522 m 220 1131 l 656 1131 l 656 1089 l 220 1089 "},"Ę":{"ha":861,"x_min":0,"x_max":0,"o":"m 683 522 l 683 472 l 171 472 l 171 50 l 760 50 l 760 0 b 654 -117 760 0 654 -26 b 753 -198 654 -202 753 -198 l 753 -241 b 614 -117 703 -245 607 -218 b 715 0 621 -29 711 -1 l 115 0 l 115 972 l 755 972 l 755 922 l 171 922 l 171 522 "},"Ė":{"ha":861,"x_min":0,"x_max":0,"o":"m 683 522 l 683 472 l 171 472 l 171 50 l 760 50 l 760 0 l 115 0 l 115 972 l 755 972 l 755 922 l 171 922 l 171 522 m 398 1121 b 439 1162 398 1144 416 1162 b 481 1121 463 1162 481 1144 b 439 1080 481 1098 463 1080 b 398 1121 416 1080 398 1098 "},"Æ":{"ha":1500,"x_min":0,"x_max":0,"o":"m 1322 522 l 1322 472 l 810 472 l 810 50 l 1398 50 l 1398 0 l 754 0 l 754 310 l 336 310 l 119 0 l 54 0 l 733 972 l 1394 972 l 1394 922 l 810 922 l 810 522 m 371 360 l 754 360 l 754 909 "},"Œ":{"ha":1614,"x_min":0,"x_max":0,"o":"m 1436 522 l 1436 472 l 924 472 l 924 50 l 1512 50 l 1512 0 l 868 0 l 868 85 b 574 -14 787 23 686 -14 b 88 486 298 -14 88 210 b 574 986 88 762 298 986 b 868 888 686 986 787 949 l 868 972 l 1508 972 l 1508 922 l 924 922 l 924 522 m 574 37 b 868 157 692 37 793 83 l 868 814 b 574 936 793 888 692 936 b 146 486 324 936 146 723 b 574 37 146 250 324 37 "},"Ĝ":{"ha":1088,"x_min":0,"x_max":0,"o":"m 146 486 b 561 37 146 250 311 37 b 935 472 817 37 935 243 l 581 472 l 581 522 l 992 522 b 561 -14 1008 189 825 -14 b 88 486 285 -14 88 210 b 561 986 88 762 285 986 b 939 788 826 986 939 788 l 876 788 b 561 936 876 788 774 936 b 146 486 311 936 146 723 m 758 1062 l 706 1062 l 557 1225 l 409 1062 l 357 1062 l 536 1266 l 578 1266 "},"Ğ":{"ha":1088,"x_min":0,"x_max":0,"o":"m 146 486 b 561 37 146 250 311 37 b 935 472 817 37 935 243 l 581 472 l 581 522 l 992 522 b 561 -14 1008 189 825 -14 b 88 486 285 -14 88 210 b 561 986 88 762 285 986 b 939 788 826 986 939 788 l 876 788 b 561 936 876 788 774 936 b 146 486 311 936 146 723 m 552 1069 b 349 1210 376 1069 349 1210 l 388 1210 b 552 1109 388 1210 417 1109 b 716 1210 687 1109 716 1210 l 755 1210 b 552 1069 755 1210 728 1069 "},"Ġ":{"ha":1088,"x_min":0,"x_max":0,"o":"m 146 486 b 561 37 146 250 311 37 b 935 472 817 37 935 243 l 581 472 l 581 522 l 992 522 b 561 -14 1008 189 825 -14 b 88 486 285 -14 88 210 b 561 986 88 762 285 986 b 939 788 826 986 939 788 l 876 788 b 561 936 876 788 774 936 b 146 486 311 936 146 723 m 513 1121 b 554 1162 513 1144 531 1162 b 595 1121 577 1162 595 1144 b 554 1080 595 1098 577 1080 b 513 1121 531 1080 513 1098 "},"Ģ":{"ha":1088,"x_min":0,"x_max":0,"o":"m 146 486 b 561 37 146 250 311 37 b 935 472 817 37 935 243 l 581 472 l 581 522 l 992 522 b 561 -14 1008 189 825 -14 b 88 486 285 -14 88 210 b 561 986 88 762 285 986 b 939 788 826 986 939 788 l 876 788 b 561 936 876 788 774 936 b 146 486 311 936 146 723 m 526 -92 l 583 -92 l 462 -361 l 417 -361 "},"Ĥ":{"ha":963,"x_min":0,"x_max":0,"o":"m 792 972 l 848 972 l 848 0 l 792 0 l 792 472 l 171 472 l 171 0 l 115 0 l 115 972 l 171 972 l 171 522 l 792 522 m 682 1062 l 630 1062 l 481 1225 l 333 1062 l 281 1062 l 460 1266 l 503 1266 "},"Ħ":{"ha":1150,"x_min":0,"x_max":0,"o":"m 1096 720 l 941 720 l 941 0 l 886 0 l 886 472 l 264 472 l 264 0 l 209 0 l 209 720 l 54 720 l 54 770 l 209 770 l 209 972 l 264 972 l 264 770 l 886 770 l 886 972 l 941 972 l 941 770 l 1096 770 m 886 720 l 264 720 l 264 522 l 886 522 "},"Ì":{"ha":307,"x_min":0,"x_max":0,"o":"m 123 972 l 178 972 l 178 0 l 123 0 m 175 1067 l 126 1067 l -81 1274 l -14 1274 "},"Í":{"ha":308,"x_min":0,"x_max":0,"o":"m 129 972 l 184 972 l 184 0 l 129 0 m 322 1274 l 389 1274 l 182 1067 l 133 1067 "},"Î":{"ha":305,"x_min":0,"x_max":0,"o":"m 125 972 l 180 972 l 180 0 l 125 0 m 353 1062 l 301 1062 l 153 1225 l 4 1062 l -47 1062 l 132 1266 l 174 1266 "},"Ï":{"ha":293,"x_min":0,"x_max":0,"o":"m 119 972 l 174 972 l 174 0 l 119 0 m -14 1121 b 28 1162 -14 1144 5 1162 b 69 1121 51 1162 69 1144 b 28 1080 69 1098 51 1080 b -14 1121 5 1080 -14 1098 m 224 1121 b 265 1162 224 1144 242 1162 b 307 1121 288 1162 307 1144 b 265 1080 307 1098 288 1080 b 224 1121 242 1080 224 1098 "},"Ĩ":{"ha":277,"x_min":0,"x_max":0,"o":"m 111 972 l 166 972 l 166 0 l 111 0 m 125 1136 b 58 1177 106 1158 90 1177 b -3 1119 6 1177 -3 1119 l -47 1119 b 58 1219 -47 1119 -36 1219 b 152 1166 106 1219 129 1192 b 220 1125 172 1144 188 1125 b 281 1183 271 1125 281 1183 l 325 1183 b 220 1083 325 1183 313 1083 b 125 1136 172 1083 149 1110 "},"Ī":{"ha":315,"x_min":0,"x_max":0,"o":"m 130 972 l 185 972 l 185 0 l 130 0 m -61 1131 l 376 1131 l 376 1089 l -61 1089 "},"Į":{"ha":295,"x_min":0,"x_max":0,"o":"m 111 972 l 166 972 l 166 0 b 60 -117 166 0 60 -26 b 159 -198 60 -202 159 -198 l 159 -241 b 21 -117 109 -245 14 -218 b 122 0 27 -29 118 -1 l 111 0 "},"Ĭ":{"ha":312,"x_min":0,"x_max":0,"o":"m 128 972 l 184 972 l 184 0 l 128 0 m 156 1069 b -47 1210 -20 1069 -47 1210 l -8 1210 b 156 1109 -8 1210 21 1109 b 320 1210 291 1109 320 1210 l 359 1210 b 156 1069 359 1210 332 1069 "},"İ":{"ha":340,"x_min":0,"x_max":0,"o":"m 142 972 l 197 972 l 197 0 l 142 0 m 129 1121 b 170 1162 129 1144 147 1162 b 212 1121 193 1162 212 1144 b 170 1080 212 1098 193 1080 b 129 1121 147 1080 129 1098 "},"Ĳ":{"ha":1116,"x_min":0,"x_max":0,"o":"m 129 972 l 184 972 l 184 0 l 129 0 m 458 222 b 682 37 458 222 487 37 b 931 351 853 37 931 144 l 931 972 l 987 972 l 987 335 b 682 -14 987 114 882 -14 b 397 222 423 -14 397 222 "},"Ĵ":{"ha":952,"x_min":0,"x_max":0,"o":"m 136 222 b 359 37 136 222 164 37 b 608 351 530 37 608 144 l 608 972 l 664 972 l 664 335 b 359 -14 664 114 559 -14 b 75 222 100 -14 75 222 m 837 1062 l 785 1062 l 637 1225 l 488 1062 l 437 1062 l 616 1266 l 658 1266 "},"Ķ":{"ha":905,"x_min":0,"x_max":0,"o":"m 774 972 l 850 972 l 380 571 l 850 0 l 783 0 l 341 538 l 171 392 l 171 0 l 115 0 l 115 972 l 171 972 l 171 461 m 400 -92 l 457 -92 l 336 -361 l 292 -361 "},"ĸ":{"ha":905,"x_min":0,"x_max":0,"o":"m 774 972 l 850 972 l 380 571 l 850 0 l 783 0 l 341 538 l 171 392 l 171 0 l 115 0 l 115 972 l 171 972 l 171 461 "},"Ĺ":{"ha":804,"x_min":0,"x_max":0,"o":"m 171 50 l 715 50 l 715 0 l 115 0 l 115 972 l 171 972 m 309 1274 l 376 1274 l 169 1067 l 120 1067 "},"Ļ":{"ha":804,"x_min":0,"x_max":0,"o":"m 171 50 l 715 50 l 715 0 l 115 0 l 115 972 l 171 972 m 393 -92 l 450 -92 l 329 -361 l 284 -361 "},"Ľ":{"ha":804,"x_min":0,"x_max":0,"o":"m 319 972 l 379 972 l 312 677 l 274 677 m 171 50 l 715 50 l 715 0 l 115 0 l 115 972 l 171 972 "},"Ł":{"ha":910,"x_min":0,"x_max":0,"o":"m 277 543 l 445 659 l 445 602 l 277 486 l 277 50 l 822 50 l 822 0 l 222 0 l 222 448 l 54 334 l 54 390 l 222 505 l 222 972 l 277 972 "},"Ŀ":{"ha":783,"x_min":0,"x_max":0,"o":"m 171 50 l 715 50 l 715 0 l 115 0 l 115 972 l 171 972 m 536 526 b 583 572 536 551 557 572 b 629 526 608 572 629 551 b 583 479 629 500 608 479 b 536 526 557 479 536 500 "},"Ń":{"ha":966,"x_min":0,"x_max":0,"o":"m 115 972 l 183 972 l 795 74 l 795 972 l 850 972 l 850 0 l 783 0 l 171 899 l 171 0 l 115 0 m 634 1274 l 701 1274 l 494 1067 l 445 1067 "},"Ņ":{"ha":966,"x_min":0,"x_max":0,"o":"m 115 972 l 183 972 l 795 74 l 795 972 l 850 972 l 850 0 l 783 0 l 171 899 l 171 0 l 115 0 m 453 -92 l 510 -92 l 389 -361 l 345 -361 "},"Ñ":{"ha":966,"x_min":0,"x_max":0,"o":"m 115 972 l 183 972 l 795 74 l 795 972 l 850 972 l 850 0 l 783 0 l 171 899 l 171 0 l 115 0 m 469 1136 b 401 1177 450 1158 433 1177 b 340 1119 350 1177 340 1119 l 296 1119 b 401 1219 296 1119 308 1219 b 496 1166 450 1219 473 1192 b 564 1125 515 1144 532 1125 b 625 1183 615 1125 625 1183 l 669 1183 b 564 1083 669 1183 657 1083 b 469 1136 515 1083 492 1110 "},"Ň":{"ha":966,"x_min":0,"x_max":0,"o":"m 115 972 l 183 972 l 795 74 l 795 972 l 850 972 l 850 0 l 783 0 l 171 899 l 171 0 l 115 0 m 504 1062 l 462 1062 l 283 1266 l 334 1266 l 483 1103 l 631 1266 l 683 1266 "},"Ŋ":{"ha":966,"x_min":0,"x_max":0,"o":"m 322 -125 b 546 -311 322 -125 351 -311 b 795 0 715 -311 793 -205 l 783 0 l 171 899 l 171 0 l 115 0 l 115 972 l 183 972 l 795 74 l 795 972 l 850 972 l 850 -12 b 546 -361 850 -233 745 -361 b 261 -125 287 -361 261 -125 "},"Ò":{"ha":1149,"x_min":0,"x_max":0,"o":"m 574 986 b 1061 486 850 986 1061 762 b 574 -14 1061 210 850 -14 b 88 486 298 -14 88 210 b 574 986 88 762 298 986 m 1002 486 b 574 936 1002 723 825 936 b 146 486 324 936 146 723 b 574 37 146 250 324 37 b 1002 486 825 37 1002 250 m 594 1067 l 545 1067 l 338 1274 l 405 1274 "},"Ó":{"ha":1149,"x_min":0,"x_max":0,"o":"m 574 986 b 1061 486 850 986 1061 762 b 574 -14 1061 210 850 -14 b 88 486 298 -14 88 210 b 574 986 88 762 298 986 m 1002 486 b 574 936 1002 723 825 936 b 146 486 324 936 146 723 b 574 37 146 250 324 37 b 1002 486 825 37 1002 250 m 736 1274 l 803 1274 l 595 1067 l 547 1067 "},"Ô":{"ha":1149,"x_min":0,"x_max":0,"o":"m 574 986 b 1061 486 850 986 1061 762 b 574 -14 1061 210 850 -14 b 88 486 298 -14 88 210 b 574 986 88 762 298 986 m 1002 486 b 574 936 1002 723 825 936 b 146 486 324 936 146 723 b 574 37 146 250 324 37 b 1002 486 825 37 1002 250 m 774 1062 l 723 1062 l 574 1225 l 426 1062 l 374 1062 l 553 1266 l 595 1266 "},"Õ":{"ha":1149,"x_min":0,"x_max":0,"o":"m 574 986 b 1061 486 850 986 1061 762 b 574 -14 1061 210 850 -14 b 88 486 298 -14 88 210 b 574 986 88 762 298 986 m 1002 486 b 574 936 1002 723 825 936 b 146 486 324 936 146 723 b 574 37 146 250 324 37 b 1002 486 825 37 1002 250 m 562 1136 b 494 1177 542 1158 526 1177 b 433 1119 442 1177 433 1119 l 389 1119 b 494 1219 389 1119 400 1219 b 588 1166 542 1219 565 1192 b 656 1125 608 1144 624 1125 b 717 1183 707 1125 717 1183 l 761 1183 b 656 1083 761 1183 749 1083 b 562 1136 608 1083 585 1110 "},"Ö":{"ha":1149,"x_min":0,"x_max":0,"o":"m 574 986 b 1061 486 850 986 1061 762 b 574 -14 1061 210 850 -14 b 88 486 298 -14 88 210 b 574 986 88 762 298 986 m 1002 486 b 574 936 1002 723 825 936 b 146 486 324 936 146 723 b 574 37 146 250 324 37 b 1002 486 825 37 1002 250 m 414 1121 b 456 1162 414 1144 433 1162 b 497 1121 479 1162 497 1144 b 456 1080 497 1098 479 1080 b 414 1121 433 1080 414 1098 m 652 1121 b 693 1162 652 1144 670 1162 b 734 1121 716 1162 734 1144 b 693 1080 734 1098 716 1080 b 652 1121 670 1080 652 1098 "},"Ō":{"ha":1149,"x_min":0,"x_max":0,"o":"m 574 986 b 1061 486 850 986 1061 762 b 574 -14 1061 210 850 -14 b 88 486 298 -14 88 210 b 574 986 88 762 298 986 m 1002 486 b 574 936 1002 723 825 936 b 146 486 324 936 146 723 b 574 37 146 250 324 37 b 1002 486 825 37 1002 250 m 356 1131 l 793 1131 l 793 1089 l 356 1089 "},"Ő":{"ha":1149,"x_min":0,"x_max":0,"o":"m 574 986 b 1061 486 850 986 1061 762 b 574 -14 1061 210 850 -14 b 88 486 298 -14 88 210 b 574 986 88 762 298 986 m 1002 486 b 574 936 1002 723 825 936 b 146 486 324 936 146 723 b 574 37 146 250 324 37 b 1002 486 825 37 1002 250 m 715 1292 l 758 1292 l 651 1062 l 623 1062 m 569 1292 l 612 1292 l 506 1062 l 476 1062 "},"Ŏ":{"ha":1149,"x_min":0,"x_max":0,"o":"m 574 986 b 1061 486 850 986 1061 762 b 574 -14 1061 210 850 -14 b 88 486 298 -14 88 210 b 574 986 88 762 298 986 m 1002 486 b 574 936 1002 723 825 936 b 146 486 324 936 146 723 b 574 37 146 250 324 37 b 1002 486 825 37 1002 250 m 574 1069 b 371 1210 398 1069 371 1210 l 410 1210 b 574 1109 410 1210 439 1109 b 739 1210 709 1109 739 1210 l 778 1210 b 574 1069 778 1210 751 1069 "},"Ø":{"ha":1149,"x_min":0,"x_max":0,"o":"m 574 986 b 831 912 670 986 758 959 l 872 972 l 932 972 l 872 884 b 1061 486 988 792 1061 648 b 574 -14 1061 210 850 -14 b 317 60 479 -14 391 13 l 277 0 l 216 0 l 276 89 b 88 486 161 180 88 324 b 574 986 88 762 298 986 m 146 486 b 307 134 146 348 207 218 l 802 868 b 574 936 737 911 660 936 b 146 486 324 936 146 723 m 1002 486 b 842 838 1002 624 942 754 l 347 104 b 574 37 411 62 488 37 b 1002 486 825 37 1002 250 "},"Ŕ":{"ha":906,"x_min":0,"x_max":0,"o":"m 115 0 l 115 972 l 538 972 b 811 704 696 972 811 872 b 566 442 811 555 702 452 l 804 0 l 744 0 l 510 435 l 171 435 l 171 0 m 171 922 l 171 486 l 538 486 b 754 704 668 486 754 570 b 538 922 754 838 668 922 m 568 1274 l 635 1274 l 427 1067 l 378 1067 "},"Ŗ":{"ha":906,"x_min":0,"x_max":0,"o":"m 115 0 l 115 972 l 538 972 b 811 704 696 972 811 872 b 566 442 811 555 702 452 l 804 0 l 744 0 l 510 435 l 171 435 l 171 0 m 171 922 l 171 486 l 538 486 b 754 704 668 486 754 570 b 538 922 754 838 668 922 m 402 -92 l 459 -92 l 338 -361 l 294 -361 "},"Ř":{"ha":906,"x_min":0,"x_max":0,"o":"m 115 0 l 115 972 l 538 972 b 811 704 696 972 811 872 b 566 442 811 555 702 452 l 804 0 l 744 0 l 510 435 l 171 435 l 171 0 m 171 922 l 171 486 l 538 486 b 754 704 668 486 754 570 b 538 922 754 838 668 922 m 433 1062 l 391 1062 l 212 1266 l 264 1266 l 412 1103 l 561 1266 l 612 1266 "},"Ś":{"ha":838,"x_min":0,"x_max":0,"o":"m 570 1274 l 637 1274 l 430 1067 l 381 1067 m 132 201 b 414 37 132 201 191 37 b 707 251 600 37 707 115 b 414 477 707 376 625 441 b 95 744 178 518 95 606 b 414 986 95 894 223 986 b 725 785 693 986 725 785 l 668 785 b 414 936 668 785 643 936 b 151 744 254 936 151 865 b 414 532 151 646 205 569 b 763 251 650 491 763 411 b 414 -14 763 83 635 -14 b 75 201 130 -14 75 201 "},"Ŝ":{"ha":838,"x_min":0,"x_max":0,"o":"m 602 1062 l 551 1062 l 402 1225 l 254 1062 l 202 1062 l 381 1266 l 423 1266 m 132 201 b 414 37 132 201 191 37 b 707 251 600 37 707 115 b 414 477 707 376 625 441 b 95 744 178 518 95 606 b 414 986 95 894 223 986 b 725 785 693 986 725 785 l 668 785 b 414 936 668 785 643 936 b 151 744 254 936 151 865 b 414 532 151 646 205 569 b 763 251 650 491 763 411 b 414 -14 763 83 635 -14 b 75 201 130 -14 75 201 "},"Ş":{"ha":838,"x_min":0,"x_max":0,"o":"m 314 -237 b 500 -191 378 -263 492 -270 b 347 -136 507 -134 440 -130 l 389 -13 b 75 201 127 -1 75 201 l 132 201 b 414 37 132 201 191 37 b 707 251 600 37 707 115 b 414 477 707 376 625 441 b 95 744 178 518 95 606 b 414 986 95 894 223 986 b 725 785 693 986 725 785 l 668 785 b 414 936 668 785 643 936 b 151 744 254 936 151 865 b 414 532 151 646 205 569 b 763 251 650 491 763 411 b 433 -13 763 87 643 -7 l 405 -95 b 547 -193 488 -94 551 -117 b 296 -275 539 -309 383 -317 "},"Š":{"ha":838,"x_min":0,"x_max":0,"o":"m 425 1062 l 383 1062 l 204 1266 l 256 1266 l 404 1103 l 553 1266 l 604 1266 m 132 201 b 414 37 132 201 191 37 b 707 251 600 37 707 115 b 414 477 707 376 625 441 b 95 744 178 518 95 606 b 414 986 95 894 223 986 b 725 785 693 986 725 785 l 668 785 b 414 936 668 785 643 936 b 151 744 254 936 151 865 b 414 532 151 646 205 569 b 763 251 650 491 763 411 b 414 -14 763 83 635 -14 b 75 201 130 -14 75 201 "},"Ș":{"ha":838,"x_min":0,"x_max":0,"o":"m 384 -92 l 441 -92 l 320 -361 l 275 -361 m 132 201 b 414 37 132 201 191 37 b 707 251 600 37 707 115 b 414 477 707 376 625 441 b 95 744 178 518 95 606 b 414 986 95 894 223 986 b 725 785 693 986 725 785 l 668 785 b 414 936 668 785 643 936 b 151 744 254 936 151 865 b 414 532 151 646 205 569 b 763 251 650 491 763 411 b 414 -14 763 83 635 -14 b 75 201 130 -14 75 201 "},"Ţ":{"ha":924,"x_min":0,"x_max":0,"o":"m 849 972 l 849 922 l 490 922 l 490 0 l 434 0 l 434 922 l 75 922 l 75 972 m 434 -92 l 491 -92 l 370 -361 l 326 -361 "},"Ț":{"ha":924,"x_min":0,"x_max":0,"o":"m 849 972 l 849 922 l 490 922 l 490 0 l 434 0 l 434 922 l 75 922 l 75 972 m 434 -92 l 491 -92 l 370 -361 l 326 -361 "},"Ť":{"ha":924,"x_min":0,"x_max":0,"o":"m 849 972 l 849 922 l 490 922 l 490 0 l 434 0 l 434 922 l 75 922 l 75 972 m 483 1062 l 441 1062 l 262 1266 l 313 1266 l 462 1103 l 610 1266 l 662 1266 "},"Ŧ":{"ha":924,"x_min":0,"x_max":0,"o":"m 849 972 l 849 922 l 490 922 l 490 642 l 711 642 l 711 591 l 490 591 l 490 0 l 434 0 l 434 591 l 213 591 l 213 642 l 434 642 l 434 922 l 75 922 l 75 972 "},"Ù":{"ha":952,"x_min":0,"x_max":0,"o":"m 476 -14 b 115 416 230 -14 115 159 l 115 972 l 171 972 l 171 430 b 476 37 171 190 264 37 b 781 430 688 37 781 190 l 781 972 l 837 972 l 837 416 b 476 -14 837 159 722 -14 m 493 1067 l 444 1067 l 237 1274 l 304 1274 "},"Ú":{"ha":952,"x_min":0,"x_max":0,"o":"m 476 -14 b 115 416 230 -14 115 159 l 115 972 l 171 972 l 171 430 b 476 37 171 190 264 37 b 781 430 688 37 781 190 l 781 972 l 837 972 l 837 416 b 476 -14 837 159 722 -14 m 618 1274 l 685 1274 l 477 1067 l 429 1067 "},"Û":{"ha":952,"x_min":0,"x_max":0,"o":"m 476 -14 b 115 416 230 -14 115 159 l 115 972 l 171 972 l 171 430 b 476 37 171 190 264 37 b 781 430 688 37 781 190 l 781 972 l 837 972 l 837 416 b 476 -14 837 159 722 -14 m 676 1062 l 625 1062 l 476 1225 l 328 1062 l 276 1062 l 455 1266 l 497 1266 "},"Ü":{"ha":952,"x_min":0,"x_max":0,"o":"m 476 -14 b 115 416 230 -14 115 159 l 115 972 l 171 972 l 171 430 b 476 37 171 190 264 37 b 781 430 688 37 781 190 l 781 972 l 837 972 l 837 416 b 476 -14 837 159 722 -14 m 316 1121 b 357 1162 316 1144 334 1162 b 399 1121 380 1162 399 1144 b 357 1080 399 1098 380 1080 b 316 1121 334 1080 316 1098 m 553 1121 b 595 1162 553 1144 572 1162 b 636 1121 618 1162 636 1144 b 595 1080 636 1098 618 1080 b 553 1121 572 1080 553 1098 "},"Ũ":{"ha":952,"x_min":0,"x_max":0,"o":"m 476 -14 b 115 416 230 -14 115 159 l 115 972 l 171 972 l 171 430 b 476 37 171 190 264 37 b 781 430 688 37 781 190 l 781 972 l 837 972 l 837 416 b 476 -14 837 159 722 -14 m 463 1136 b 395 1177 444 1158 427 1177 b 334 1119 344 1177 334 1119 l 290 1119 b 395 1219 290 1119 302 1219 b 490 1166 444 1219 467 1192 b 557 1125 509 1144 526 1125 b 618 1183 609 1125 618 1183 l 663 1183 b 557 1083 663 1183 651 1083 b 463 1136 509 1083 486 1110 "},"Ū":{"ha":952,"x_min":0,"x_max":0,"o":"m 476 -14 b 115 416 230 -14 115 159 l 115 972 l 171 972 l 171 430 b 476 37 171 190 264 37 b 781 430 688 37 781 190 l 781 972 l 837 972 l 837 416 b 476 -14 837 159 722 -14 m 258 1131 l 694 1131 l 694 1089 l 258 1089 "},"Ŭ":{"ha":952,"x_min":0,"x_max":0,"o":"m 476 -14 b 115 416 230 -14 115 159 l 115 972 l 171 972 l 171 430 b 476 37 171 190 264 37 b 781 430 688 37 781 190 l 781 972 l 837 972 l 837 416 b 476 -14 837 159 722 -14 m 476 1069 b 273 1210 300 1069 273 1210 l 312 1210 b 476 1109 312 1210 341 1109 b 640 1210 611 1109 640 1210 l 680 1210 b 476 1069 680 1210 652 1069 "},"Ů":{"ha":952,"x_min":0,"x_max":0,"o":"m 476 -14 b 115 416 230 -14 115 159 l 115 972 l 171 972 l 171 430 b 476 37 171 190 264 37 b 781 430 688 37 781 190 l 781 972 l 837 972 l 837 416 b 476 -14 837 159 722 -14 m 361 1177 b 476 1293 361 1240 407 1293 b 591 1177 546 1293 591 1240 b 476 1062 591 1115 546 1062 b 361 1177 407 1062 361 1115 m 399 1177 b 476 1099 399 1139 424 1099 b 553 1177 528 1099 553 1139 b 476 1256 553 1216 528 1256 b 399 1177 424 1256 399 1216 "},"Ű":{"ha":952,"x_min":0,"x_max":0,"o":"m 476 -14 b 115 416 230 -14 115 159 l 115 972 l 171 972 l 171 430 b 476 37 171 190 264 37 b 781 430 688 37 781 190 l 781 972 l 837 972 l 837 416 b 476 -14 837 159 722 -14 m 608 1299 l 651 1299 l 545 1069 l 516 1069 m 463 1299 l 505 1299 l 399 1069 l 370 1069 "},"Ų":{"ha":952,"x_min":0,"x_max":0,"o":"m 476 -14 b 115 416 230 -14 115 159 l 115 972 l 171 972 l 171 430 b 476 37 171 190 264 37 b 781 430 688 37 781 190 l 781 972 l 837 972 l 837 416 b 581 -1 837 199 755 42 b 480 -117 560 -7 480 -37 b 579 -198 480 -202 579 -198 l 579 -241 b 441 -117 529 -245 433 -218 b 514 -12 445 -59 486 -27 b 476 -14 502 -13 489 -14 "},"Ŵ":{"ha":1289,"x_min":0,"x_max":0,"o":"m 904 165 l 1175 972 l 1234 972 l 909 0 l 900 0 l 644 810 l 389 0 l 380 0 l 54 972 l 114 972 l 385 165 l 640 972 l 649 972 m 844 1062 l 793 1062 l 644 1225 l 496 1062 l 444 1062 l 623 1266 l 665 1266 "},"Ý":{"ha":954,"x_min":0,"x_max":0,"o":"m 477 458 l 833 972 l 899 972 l 505 399 l 505 0 l 449 0 l 449 399 l 54 972 l 121 972 m 633 1274 l 700 1274 l 492 1067 l 444 1067 "},"Ŷ":{"ha":954,"x_min":0,"x_max":0,"o":"m 477 458 l 833 972 l 899 972 l 505 399 l 505 0 l 449 0 l 449 399 l 54 972 l 121 972 m 677 1062 l 625 1062 l 477 1225 l 328 1062 l 277 1062 l 456 1266 l 498 1266 "},"Ÿ":{"ha":954,"x_min":0,"x_max":0,"o":"m 477 458 l 833 972 l 899 972 l 505 399 l 505 0 l 449 0 l 449 399 l 54 972 l 121 972 m 317 1121 b 358 1162 317 1144 335 1162 b 399 1121 381 1162 399 1144 b 358 1080 399 1098 381 1080 b 317 1121 335 1080 317 1098 m 554 1121 b 595 1162 554 1144 572 1162 b 637 1121 618 1162 637 1144 b 595 1080 637 1098 618 1080 b 554 1121 572 1080 554 1098 "},"Ź":{"ha":920,"x_min":0,"x_max":0,"o":"m 819 50 l 819 0 l 102 0 l 102 28 l 732 922 l 109 922 l 109 972 l 816 972 l 816 945 l 185 50 m 609 1274 l 676 1274 l 469 1067 l 420 1067 "},"Ż":{"ha":920,"x_min":0,"x_max":0,"o":"m 819 50 l 819 0 l 102 0 l 102 28 l 732 922 l 109 922 l 109 972 l 816 972 l 816 945 l 185 50 m 419 1121 b 460 1162 419 1144 437 1162 b 502 1121 484 1162 502 1144 b 460 1080 502 1098 484 1080 b 419 1121 437 1080 419 1098 "},"Ž":{"ha":920,"x_min":0,"x_max":0,"o":"m 819 50 l 819 0 l 102 0 l 102 28 l 732 922 l 109 922 l 109 972 l 816 972 l 816 945 l 185 50 m 479 1062 l 437 1062 l 258 1266 l 309 1266 l 458 1103 l 606 1266 l 658 1266 "},"à":{"ha":853,"x_min":0,"x_max":0,"o":"m 75 336 b 413 685 75 538 220 685 b 701 494 625 685 701 494 l 701 671 l 751 671 l 751 0 l 701 0 l 701 176 b 413 -14 701 176 625 -14 b 75 336 220 -14 75 133 m 701 336 b 413 643 701 516 578 643 b 125 336 248 643 125 516 b 413 28 125 155 248 28 b 701 336 578 28 701 155 m 450 766 l 401 766 l 193 972 l 260 972 "},"á":{"ha":853,"x_min":0,"x_max":0,"o":"m 75 336 b 413 685 75 538 220 685 b 701 494 625 685 701 494 l 701 671 l 751 671 l 751 0 l 701 0 l 701 176 b 413 -14 701 176 625 -14 b 75 336 220 -14 75 133 m 701 336 b 413 643 701 516 578 643 b 125 336 248 643 125 516 b 413 28 125 155 248 28 b 701 336 578 28 701 155 m 575 972 l 642 972 l 435 766 l 386 766 "},"â":{"ha":853,"x_min":0,"x_max":0,"o":"m 75 336 b 413 685 75 538 220 685 b 701 494 625 685 701 494 l 701 671 l 751 671 l 751 0 l 701 0 l 701 176 b 413 -14 701 176 625 -14 b 75 336 220 -14 75 133 m 701 336 b 413 643 701 516 578 643 b 125 336 248 643 125 516 b 413 28 125 155 248 28 b 701 336 578 28 701 155 m 625 768 l 574 768 l 425 931 l 277 768 l 225 768 l 404 972 l 446 972 "},"ā":{"ha":853,"x_min":0,"x_max":0,"o":"m 75 336 b 413 685 75 538 220 685 b 701 494 625 685 701 494 l 701 671 l 751 671 l 751 0 l 701 0 l 701 176 b 413 -14 701 176 625 -14 b 75 336 220 -14 75 133 m 701 336 b 413 643 701 516 578 643 b 125 336 248 643 125 516 b 413 28 125 155 248 28 b 701 336 578 28 701 155 m 224 972 l 661 972 l 661 930 l 224 930 "},"ã":{"ha":853,"x_min":0,"x_max":0,"o":"m 75 336 b 413 685 75 538 220 685 b 701 494 625 685 701 494 l 701 671 l 751 671 l 751 0 l 701 0 l 701 176 b 413 -14 701 176 625 -14 b 75 336 220 -14 75 133 m 701 336 b 413 643 701 516 578 643 b 125 336 248 643 125 516 b 413 28 125 155 248 28 b 701 336 578 28 701 155 m 415 889 b 347 930 395 911 379 930 b 286 872 296 930 286 872 l 242 872 b 347 972 242 872 254 972 b 441 920 395 972 418 945 b 509 878 461 897 477 878 b 570 937 561 878 570 937 l 614 937 b 509 836 614 937 603 836 b 415 889 461 836 438 863 "},"ä":{"ha":853,"x_min":0,"x_max":0,"o":"m 75 336 b 413 685 75 538 220 685 b 701 494 625 685 701 494 l 701 671 l 751 671 l 751 0 l 701 0 l 701 176 b 413 -14 701 176 625 -14 b 75 336 220 -14 75 133 m 701 336 b 413 643 701 516 578 643 b 125 336 248 643 125 516 b 413 28 125 155 248 28 b 701 336 578 28 701 155 m 272 877 b 313 918 272 900 290 918 b 355 877 336 918 355 900 b 313 836 355 854 336 836 b 272 877 290 836 272 854 m 509 877 b 551 918 509 900 528 918 b 592 877 574 918 592 900 b 551 836 592 854 574 836 b 509 877 528 836 509 854 "},"å":{"ha":853,"x_min":0,"x_max":0,"o":"m 75 336 b 413 685 75 538 220 685 b 701 494 625 685 701 494 l 701 671 l 751 671 l 751 0 l 701 0 l 701 176 b 413 -14 701 176 625 -14 b 75 336 220 -14 75 133 m 701 336 b 413 643 701 516 578 643 b 125 336 248 643 125 516 b 413 28 125 155 248 28 b 701 336 578 28 701 155 m 321 878 b 437 993 321 941 368 993 b 552 878 507 993 552 941 b 437 762 552 815 507 762 b 321 878 368 762 321 815 m 359 878 b 437 799 359 839 385 799 b 514 878 489 799 514 839 b 437 956 514 916 489 956 b 359 878 385 956 359 916 "},"ă":{"ha":853,"x_min":0,"x_max":0,"o":"m 75 336 b 413 685 75 538 220 685 b 701 494 625 685 701 494 l 701 671 l 751 671 l 751 0 l 701 0 l 701 176 b 413 -14 701 176 625 -14 b 75 336 220 -14 75 133 m 701 336 b 413 643 701 516 578 643 b 125 336 248 643 125 516 b 413 28 125 155 248 28 b 701 336 578 28 701 155 m 435 832 b 231 972 258 832 231 972 l 271 972 b 435 871 271 972 300 871 b 599 972 570 871 599 972 l 638 972 b 435 832 638 972 611 832 "},"ą":{"ha":853,"x_min":0,"x_max":0,"o":"m 75 336 b 413 685 75 538 220 685 b 701 494 625 685 701 494 l 701 671 l 751 671 l 751 0 b 646 -117 746 -1 646 -28 b 745 -198 646 -202 745 -198 l 745 -241 b 606 -117 694 -245 599 -218 b 707 0 612 -29 703 -1 l 701 0 l 701 176 b 413 -14 697 167 620 -14 b 75 336 220 -14 75 133 m 701 336 b 413 643 701 516 578 643 b 125 336 248 643 125 516 b 413 28 125 155 248 28 b 701 336 578 28 701 155 "},"ć":{"ha":751,"x_min":0,"x_max":0,"o":"m 125 336 b 406 28 125 155 241 28 b 633 149 568 28 633 149 l 690 149 b 406 -14 690 149 612 -14 b 75 336 213 -14 75 133 b 406 685 75 538 213 685 b 690 522 612 685 690 522 l 633 522 b 406 643 633 522 568 643 b 125 336 241 643 125 516 m 564 972 l 631 972 l 423 766 l 374 766 "},"č":{"ha":751,"x_min":0,"x_max":0,"o":"m 125 336 b 406 28 125 155 241 28 b 633 149 568 28 633 149 l 690 149 b 406 -14 690 149 612 -14 b 75 336 213 -14 75 133 b 406 685 75 538 213 685 b 690 522 612 685 690 522 l 633 522 b 406 643 633 522 568 643 b 125 336 241 643 125 516 m 420 768 l 378 768 l 199 972 l 250 972 l 399 810 l 547 972 l 599 972 "},"ĉ":{"ha":751,"x_min":0,"x_max":0,"o":"m 125 336 b 406 28 125 155 241 28 b 633 149 568 28 633 149 l 690 149 b 406 -14 690 149 612 -14 b 75 336 213 -14 75 133 b 406 685 75 538 213 685 b 690 522 612 685 690 522 l 633 522 b 406 643 633 522 568 643 b 125 336 241 643 125 516 m 593 768 l 542 768 l 393 931 l 245 768 l 193 768 l 372 972 l 414 972 "},"ċ":{"ha":751,"x_min":0,"x_max":0,"o":"m 125 336 b 406 28 125 155 241 28 b 633 149 568 28 633 149 l 690 149 b 406 -14 690 149 612 -14 b 75 336 213 -14 75 133 b 406 685 75 538 213 685 b 690 522 612 685 690 522 l 633 522 b 406 643 633 522 568 643 b 125 336 241 643 125 516 m 357 877 b 399 918 357 900 376 918 b 440 877 422 918 440 900 b 399 836 440 854 422 836 b 357 877 376 836 357 854 "},"ç":{"ha":751,"x_min":0,"x_max":0,"o":"m 296 -237 b 483 -191 360 -263 475 -270 b 329 -136 489 -134 422 -130 l 372 -12 b 75 336 197 4 75 145 b 406 685 75 538 213 685 b 690 522 612 685 690 522 l 633 522 b 406 643 633 522 568 643 b 125 336 241 643 125 516 b 406 28 125 155 241 28 b 633 149 568 28 633 149 l 690 149 b 415 -13 690 149 614 -8 l 387 -95 b 529 -193 470 -94 534 -117 b 278 -275 522 -309 366 -317 "},"ď":{"ha":825,"x_min":0,"x_max":0,"o":"m 854 1028 l 913 1028 l 846 732 l 808 732 m 75 336 b 413 685 75 538 220 685 b 701 494 625 685 701 494 l 701 1028 l 751 1028 l 751 0 l 701 0 l 701 176 b 413 -14 701 176 625 -14 b 75 336 220 -14 75 133 m 701 336 b 413 643 701 516 578 643 b 125 336 248 643 125 516 b 413 28 125 155 248 28 b 701 336 578 28 701 155 "},"đ":{"ha":871,"x_min":0,"x_max":0,"o":"m 75 336 b 413 685 75 538 220 685 b 701 494 620 685 697 504 l 701 829 l 488 829 l 488 871 l 701 871 l 701 1028 l 751 1028 l 751 871 l 898 871 l 898 829 l 751 829 l 751 0 l 701 0 l 701 176 b 413 -14 697 167 620 -14 b 75 336 220 -14 75 133 m 701 336 b 413 643 701 516 578 643 b 125 336 248 643 125 516 b 413 28 125 155 248 28 b 701 336 578 28 701 155 "},"ð":{"ha":853,"x_min":0,"x_max":0,"o":"m 75 336 b 413 685 75 538 220 685 b 701 494 625 685 701 494 b 566 857 701 494 692 711 l 383 758 l 363 794 l 535 888 b 271 986 473 945 388 986 l 271 1028 b 572 907 387 1028 490 989 l 723 990 l 743 954 l 601 876 b 751 336 694 762 751 584 b 413 -14 751 155 625 -14 b 75 336 220 -14 75 133 m 701 336 b 413 643 701 516 578 643 b 125 336 248 643 125 516 b 413 28 125 155 248 28 b 701 336 578 28 701 155 "},"è":{"ha":827,"x_min":0,"x_max":0,"o":"m 718 149 b 413 -14 718 149 633 -14 b 75 336 220 -14 75 133 b 413 685 75 538 220 685 b 751 318 606 685 761 533 l 125 318 b 413 28 133 147 253 28 b 663 149 582 28 663 149 m 413 643 b 125 360 255 643 136 528 l 700 360 b 413 643 690 528 571 643 m 435 766 l 387 766 l 179 972 l 246 972 "},"é":{"ha":827,"x_min":0,"x_max":0,"o":"m 718 149 b 413 -14 718 149 633 -14 b 75 336 220 -14 75 133 b 413 685 75 538 220 685 b 751 318 606 685 761 533 l 125 318 b 413 28 133 147 253 28 b 663 149 582 28 663 149 m 413 643 b 125 360 255 643 136 528 l 700 360 b 413 643 690 528 571 643 m 568 972 l 635 972 l 427 766 l 378 766 "},"ě":{"ha":827,"x_min":0,"x_max":0,"o":"m 718 149 b 413 -14 718 149 633 -14 b 75 336 220 -14 75 133 b 413 685 75 538 220 685 b 751 318 606 685 761 533 l 125 318 b 413 28 133 147 253 28 b 663 149 582 28 663 149 m 413 643 b 125 360 255 643 136 528 l 700 360 b 413 643 690 528 571 643 m 428 768 l 386 768 l 207 972 l 258 972 l 407 810 l 555 972 l 607 972 "},"ê":{"ha":827,"x_min":0,"x_max":0,"o":"m 718 149 b 413 -14 718 149 633 -14 b 75 336 220 -14 75 133 b 413 685 75 538 220 685 b 751 318 606 685 761 533 l 125 318 b 413 28 133 147 253 28 b 663 149 582 28 663 149 m 413 643 b 125 360 255 643 136 528 l 700 360 b 413 643 690 528 571 643 m 605 768 l 553 768 l 405 931 l 256 768 l 205 768 l 384 972 l 426 972 "},"ĕ":{"ha":827,"x_min":0,"x_max":0,"o":"m 718 149 b 413 -14 718 149 633 -14 b 75 336 220 -14 75 133 b 413 685 75 538 220 685 b 751 318 606 685 761 533 l 125 318 b 413 28 133 147 253 28 b 663 149 582 28 663 149 m 413 643 b 125 360 255 643 136 528 l 700 360 b 413 643 690 528 571 643 m 410 832 b 206 972 233 832 206 972 l 245 972 b 410 871 245 972 275 871 b 574 972 545 871 574 972 l 613 972 b 410 832 613 972 586 832 "},"ë":{"ha":827,"x_min":0,"x_max":0,"o":"m 718 149 b 413 -14 718 149 633 -14 b 75 336 220 -14 75 133 b 413 685 75 538 220 685 b 751 318 606 685 761 533 l 125 318 b 413 28 133 147 253 28 b 663 149 582 28 663 149 m 413 643 b 125 360 255 643 136 528 l 700 360 b 413 643 690 528 571 643 m 244 877 b 286 918 244 900 262 918 b 327 877 309 918 327 900 b 286 836 327 854 309 836 b 244 877 262 836 244 854 m 481 877 b 523 918 481 900 500 918 b 564 877 546 918 564 900 b 523 836 564 854 546 836 b 481 877 500 836 481 854 "},"ē":{"ha":827,"x_min":0,"x_max":0,"o":"m 718 149 b 413 -14 718 149 633 -14 b 75 336 220 -14 75 133 b 413 685 75 538 220 685 b 751 318 606 685 761 533 l 125 318 b 413 28 133 147 253 28 b 663 149 582 28 663 149 m 413 643 b 125 360 255 643 136 528 l 700 360 b 413 643 690 528 571 643 m 192 972 l 629 972 l 629 930 l 192 930 "},"ę":{"ha":827,"x_min":0,"x_max":0,"o":"m 718 149 b 509 -2 718 149 659 35 b 411 -117 486 -9 411 -39 b 510 -198 411 -202 510 -198 l 510 -241 b 372 -117 460 -245 364 -218 b 444 -12 376 -60 416 -28 b 413 -14 434 -13 423 -14 b 75 336 220 -14 75 133 b 413 685 75 538 220 685 b 751 318 606 685 761 533 l 125 318 b 413 28 133 147 253 28 b 663 149 582 28 663 149 m 413 643 b 125 360 255 643 136 528 l 700 360 b 413 643 690 528 571 643 "},"ė":{"ha":827,"x_min":0,"x_max":0,"o":"m 718 149 b 413 -14 718 149 633 -14 b 75 336 220 -14 75 133 b 413 685 75 538 220 685 b 751 318 606 685 761 533 l 125 318 b 413 28 133 147 253 28 b 663 149 582 28 663 149 m 413 643 b 125 360 255 643 136 528 l 700 360 b 413 643 690 528 571 643 m 370 877 b 411 918 370 900 388 918 b 452 877 434 918 452 900 b 411 836 452 854 434 836 b 370 877 388 836 370 854 "},"æ":{"ha":1453,"x_min":0,"x_max":0,"o":"m 75 336 b 413 685 75 538 220 685 b 701 494 620 685 697 504 l 701 671 l 751 671 l 751 526 b 1040 685 810 623 915 685 b 1378 318 1233 685 1388 533 l 752 318 b 1040 28 760 147 880 28 b 1289 149 1208 28 1289 149 l 1344 149 b 1040 -14 1344 149 1260 -14 b 751 146 915 -14 810 47 l 751 0 l 701 0 l 701 176 b 413 -14 697 167 620 -14 b 75 336 220 -14 75 133 m 701 336 b 413 643 701 516 578 643 b 125 336 248 643 125 516 b 413 28 125 155 248 28 b 701 336 578 28 701 155 m 1040 643 b 752 360 882 643 763 528 l 1326 360 b 1040 643 1316 528 1198 643 "},"œ":{"ha":1453,"x_min":0,"x_max":0,"o":"m 75 336 b 413 685 75 538 220 685 b 726 474 558 685 677 602 b 1040 685 776 602 894 685 b 1378 318 1233 685 1388 533 l 752 318 b 1040 28 760 147 880 28 b 1289 149 1208 28 1289 149 l 1344 149 b 1040 -14 1344 149 1260 -14 b 726 197 894 -14 776 69 b 413 -14 677 69 558 -14 b 75 336 220 -14 75 133 m 701 336 b 413 643 701 516 578 643 b 125 336 248 643 125 516 b 413 28 125 155 248 28 b 701 336 578 28 701 155 m 1040 643 b 752 360 882 643 763 528 l 1326 360 b 1040 643 1316 528 1198 643 "},"ſ":{"ha":389,"x_min":0,"x_max":0,"o":"m 152 0 l 102 0 l 102 739 b 292 1042 102 940 138 1042 b 382 1028 343 1042 382 1028 l 382 988 b 294 1000 382 988 338 1000 b 152 725 161 1000 152 895 "},"ﬀ":{"ha":991,"x_min":0,"x_max":0,"o":"m 882 671 l 882 629 l 666 629 l 666 0 l 616 0 l 616 629 l 264 629 l 264 0 l 214 0 l 214 629 l 61 629 l 61 671 l 214 671 l 214 725 b 404 1028 214 926 250 1028 b 494 1015 455 1028 494 1015 l 494 975 b 406 986 494 975 450 986 b 264 711 273 986 264 882 l 264 671 l 616 671 l 616 739 b 806 1042 616 940 652 1042 b 896 1028 857 1042 896 1028 l 896 988 b 808 1000 896 988 852 1000 b 666 725 675 1000 666 895 l 666 671 "},"ﬁ":{"ha":768,"x_min":0,"x_max":0,"o":"m 666 0 l 616 0 l 616 629 l 264 629 l 264 0 l 214 0 l 214 629 l 61 629 l 61 671 l 214 671 l 214 725 b 445 1028 214 926 290 1028 b 650 907 602 1028 650 907 l 597 907 b 447 986 597 907 555 986 b 264 711 307 986 264 882 l 264 671 l 666 671 "},"ﬂ":{"ha":768,"x_min":0,"x_max":0,"o":"m 616 629 l 264 629 l 264 0 l 214 0 l 214 629 l 61 629 l 61 671 l 214 671 l 214 725 b 445 1028 214 926 290 1028 b 666 952 581 1028 666 952 l 666 0 l 616 0 m 264 671 l 616 671 l 616 939 b 447 986 616 939 555 986 b 264 711 307 986 264 882 "},"ﬃ":{"ha":1170,"x_min":0,"x_max":0,"o":"m 1068 0 l 1018 0 l 1018 629 l 666 629 l 666 0 l 616 0 l 616 629 l 264 629 l 264 0 l 214 0 l 214 629 l 61 629 l 61 671 l 214 671 l 214 725 b 404 1028 214 926 250 1028 b 494 1015 455 1028 494 1015 l 494 975 b 406 986 494 975 450 986 b 264 711 273 986 264 882 l 264 671 l 616 671 l 616 725 b 847 1028 616 926 692 1028 b 1052 907 1004 1028 1052 907 l 999 907 b 849 986 999 907 958 986 b 666 711 709 986 666 882 l 666 671 l 1068 671 "},"ﬄ":{"ha":1170,"x_min":0,"x_max":0,"o":"m 1018 629 l 666 629 l 666 0 l 616 0 l 616 629 l 264 629 l 264 0 l 214 0 l 214 629 l 61 629 l 61 671 l 214 671 l 214 725 b 404 1028 214 926 250 1028 b 494 1015 455 1028 494 1015 l 494 975 b 406 986 494 975 450 986 b 264 711 273 986 264 882 l 264 671 l 616 671 l 616 725 b 847 1028 616 926 692 1028 b 1068 952 983 1028 1068 952 l 1068 0 l 1018 0 m 666 671 l 1018 671 l 1018 939 b 849 986 1018 939 958 986 b 666 711 709 986 666 882 "},"ĝ":{"ha":853,"x_min":0,"x_max":0,"o":"m 75 336 b 413 685 75 538 220 685 b 701 494 620 685 697 504 l 701 671 l 751 671 l 751 34 b 420 -361 751 -202 664 -361 b 132 -183 195 -361 132 -183 l 184 -183 b 420 -319 184 -183 250 -319 b 701 49 632 -319 701 -179 l 701 176 b 413 -14 697 167 620 -14 b 75 336 220 -14 75 133 m 701 336 b 413 643 701 516 578 643 b 125 336 248 643 125 516 b 413 28 125 155 248 28 b 701 336 578 28 701 155 m 636 768 l 585 768 l 436 931 l 288 768 l 236 768 l 415 972 l 457 972 "},"ğ":{"ha":853,"x_min":0,"x_max":0,"o":"m 75 336 b 413 685 75 538 220 685 b 701 494 620 685 697 504 l 701 671 l 751 671 l 751 34 b 420 -361 751 -202 664 -361 b 132 -183 195 -361 132 -183 l 184 -183 b 420 -319 184 -183 250 -319 b 701 49 632 -319 701 -179 l 701 176 b 413 -14 697 167 620 -14 b 75 336 220 -14 75 133 m 701 336 b 413 643 701 516 578 643 b 125 336 248 643 125 516 b 413 28 125 155 248 28 b 701 336 578 28 701 155 m 435 832 b 231 972 258 832 231 972 l 271 972 b 435 871 271 972 300 871 b 599 972 570 871 599 972 l 638 972 b 435 832 638 972 611 832 "},"ġ":{"ha":853,"x_min":0,"x_max":0,"o":"m 75 336 b 413 685 75 538 220 685 b 701 494 620 685 697 504 l 701 671 l 751 671 l 751 34 b 420 -361 751 -202 664 -361 b 132 -183 195 -361 132 -183 l 184 -183 b 420 -319 184 -183 250 -319 b 701 49 632 -319 701 -179 l 701 176 b 413 -14 697 167 620 -14 b 75 336 220 -14 75 133 m 701 336 b 413 643 701 516 578 643 b 125 336 248 643 125 516 b 413 28 125 155 248 28 b 701 336 578 28 701 155 m 395 877 b 437 918 395 900 414 918 b 478 877 460 918 478 900 b 437 836 478 854 460 836 b 395 877 414 836 395 854 "},"ģ":{"ha":853,"x_min":0,"x_max":0,"o":"m 75 336 b 413 685 75 538 220 685 b 701 494 620 685 697 504 l 701 671 l 751 671 l 751 34 b 420 -361 751 -202 664 -361 b 132 -183 195 -361 132 -183 l 184 -183 b 420 -319 184 -183 250 -319 b 701 49 632 -319 701 -179 l 701 176 b 413 -14 697 167 620 -14 b 75 336 220 -14 75 133 m 701 336 b 413 643 701 516 578 643 b 125 336 248 643 125 516 b 413 28 125 155 248 28 b 701 336 578 28 701 155 m 640 768 l 589 768 l 440 931 l 292 768 l 240 768 l 419 972 l 461 972 "},"ĥ":{"ha":788,"x_min":0,"x_max":0,"o":"m 686 0 l 636 0 l 636 336 b 394 643 636 495 574 643 b 152 336 214 643 152 495 l 152 0 l 102 0 l 102 1028 l 152 1028 l 152 514 b 401 685 155 522 197 685 b 686 349 586 685 686 544 m 581 1042 l 530 1042 l 381 1204 l 233 1042 l 181 1042 l 360 1246 l 402 1246 "},"ħ":{"ha":807,"x_min":0,"x_max":0,"o":"m 705 0 l 655 0 l 655 336 b 413 643 655 495 593 643 b 171 336 233 643 171 495 l 171 0 l 121 0 l 121 829 l -27 829 l -27 871 l 121 871 l 121 1028 l 171 1028 l 171 871 l 382 871 l 382 829 l 171 829 l 171 514 b 420 685 174 522 216 685 b 705 349 605 685 705 544 "},"ì":{"ha":258,"x_min":0,"x_max":0,"o":"m 155 766 l 106 766 l -102 972 l -35 972 m 106 0 l 106 671 l 156 671 l 156 0 "},"í":{"ha":259,"x_min":0,"x_max":0,"o":"m 294 972 l 361 972 l 153 766 l 104 766 m 102 0 l 102 671 l 152 671 l 152 0 "},"î":{"ha":305,"x_min":0,"x_max":0,"o":"m 353 768 l 301 768 l 153 931 l 4 768 l -47 768 l 132 972 l 174 972 m 127 0 l 127 671 l 178 671 l 178 0 "},"ï":{"ha":225,"x_min":0,"x_max":0,"o":"m -47 877 b -6 918 -47 900 -29 918 b 35 877 17 918 35 900 b -6 836 35 854 17 836 b -47 877 -29 836 -47 854 m 190 877 b 231 918 190 900 208 918 b 273 877 254 918 273 900 b 231 836 273 854 254 836 b 190 877 208 836 190 854 m 87 0 l 87 671 l 138 671 l 138 0 "},"ĩ":{"ha":277,"x_min":0,"x_max":0,"o":"m 125 889 b 58 930 106 911 90 930 b -3 872 6 930 -3 872 l -47 872 b 58 972 -47 872 -36 972 b 152 920 106 972 129 945 b 220 878 172 897 188 878 b 281 937 271 878 281 937 l 325 937 b 220 836 325 937 313 836 b 125 889 172 836 149 863 m 113 0 l 113 671 l 163 671 l 163 0 "},"ī":{"ha":315,"x_min":0,"x_max":0,"o":"m -61 972 l 376 972 l 376 930 l -61 930 m 132 0 l 132 671 l 182 671 l 182 0 "},"į":{"ha":271,"x_min":0,"x_max":0,"o":"m 102 671 l 153 671 l 153 0 b 47 -117 147 -1 47 -28 b 146 -198 47 -202 146 -198 l 146 -241 b 7 -117 96 -245 0 -218 b 109 0 14 -29 104 -1 l 102 0 m 86 877 b 127 918 86 900 104 918 b 169 877 151 918 169 900 b 127 836 169 854 151 836 b 86 877 104 836 86 854 "},"ĭ":{"ha":285,"x_min":0,"x_max":0,"o":"m 117 0 l 117 671 l 168 671 l 168 0 m 142 832 b -61 972 -34 832 -61 972 l -22 972 b 142 871 -22 972 7 871 b 307 972 277 871 307 972 l 346 972 b 142 832 346 972 319 832 "},"ı":{"ha":254,"x_min":0,"x_max":0,"o":"m 102 0 l 102 671 l 152 671 l 152 0 "},"ĳ":{"ha":588,"x_min":0,"x_max":0,"o":"m 118 671 l 168 671 l 168 0 l 118 0 m 102 877 b 143 918 102 900 120 918 b 184 877 166 918 184 900 b 143 836 184 854 166 836 b 102 877 120 836 102 854 m 420 671 l 470 671 l 470 -58 b 271 -361 470 -279 410 -361 b 154 -342 193 -361 154 -342 l 172 -303 b 264 -319 172 -303 214 -319 b 420 -51 376 -319 420 -247 m 404 877 b 445 918 404 900 422 918 b 486 877 468 918 486 900 b 445 836 486 854 468 836 b 404 877 422 836 404 854 "},"ĵ":{"ha":315,"x_min":0,"x_max":0,"o":"m 137 671 l 187 671 l 187 -58 b -12 -361 187 -279 127 -361 b -129 -342 -90 -361 -129 -342 l -111 -303 b -19 -319 -111 -303 -68 -319 b 137 -51 93 -319 137 -247 m 362 768 l 311 768 l 162 931 l 14 768 l -38 768 l 141 972 l 183 972 "},"ķ":{"ha":685,"x_min":0,"x_max":0,"o":"m 569 671 l 644 671 l 313 417 l 644 0 l 585 0 l 277 389 l 152 293 l 152 0 l 102 0 l 102 1028 l 152 1028 l 152 351 m 311 -92 l 368 -92 l 248 -361 l 203 -361 "},"ĺ":{"ha":243,"x_min":0,"x_max":0,"o":"m 102 0 l 102 1028 l 152 1028 l 152 0 m 291 1280 l 358 1280 l 151 1074 l 102 1074 "},"ļ":{"ha":254,"x_min":0,"x_max":0,"o":"m 98 0 l 98 1028 l 149 1028 l 149 0 m 95 -92 l 152 -92 l 31 -361 l -14 -361 "},"ľ":{"ha":283,"x_min":0,"x_max":0,"o":"m 256 1028 l 315 1028 l 248 732 l 210 732 m 102 0 l 102 1028 l 152 1028 l 152 0 "},"ł":{"ha":461,"x_min":0,"x_max":0,"o":"m 205 0 l 205 516 l 54 420 l 54 477 l 205 572 l 205 1028 l 256 1028 l 256 604 l 407 700 l 407 644 l 256 548 l 256 0 "},"ŀ":{"ha":315,"x_min":0,"x_max":0,"o":"m 102 0 l 102 1028 l 152 1028 l 152 0 m 256 536 b 302 583 256 562 277 583 b 349 536 328 583 349 562 b 302 490 349 511 328 490 b 256 536 277 490 256 511 "},"ń":{"ha":788,"x_min":0,"x_max":0,"o":"m 553 972 l 621 972 l 413 766 l 364 766 m 686 0 l 636 0 l 636 336 b 394 643 636 495 574 643 b 152 336 214 643 152 495 l 152 0 l 102 0 l 102 671 l 152 671 l 152 514 b 401 685 155 522 197 685 b 686 349 586 685 686 544 "},"ņ":{"ha":788,"x_min":0,"x_max":0,"o":"m 686 0 l 636 0 l 636 336 b 394 643 636 495 574 643 b 152 336 214 643 152 495 l 152 0 l 102 0 l 102 671 l 152 671 l 152 514 b 401 685 155 522 197 685 b 686 349 586 685 686 544 m 365 -92 l 422 -92 l 301 -361 l 256 -361 "},"ñ":{"ha":788,"x_min":0,"x_max":0,"o":"m 381 889 b 313 930 361 911 345 930 b 252 872 262 930 252 872 l 208 872 b 313 972 208 872 220 972 b 408 920 361 972 385 945 b 475 878 427 897 444 878 b 536 937 527 878 536 937 l 581 937 b 475 836 581 937 569 836 b 381 889 427 836 404 863 m 686 0 l 636 0 l 636 336 b 394 643 636 495 574 643 b 152 336 214 643 152 495 l 152 0 l 102 0 l 102 671 l 152 671 l 152 514 b 401 685 155 522 197 685 b 686 349 586 685 686 544 "},"ň":{"ha":788,"x_min":0,"x_max":0,"o":"m 594 768 l 543 768 l 394 931 l 245 768 l 194 768 l 373 972 l 415 972 m 686 0 l 636 0 l 636 336 b 394 643 636 495 574 643 b 152 336 214 643 152 495 l 152 0 l 102 0 l 102 671 l 152 671 l 152 514 b 401 685 155 522 197 685 b 686 349 586 685 686 544 "},"ŋ":{"ha":788,"x_min":0,"x_max":0,"o":"m 686 -58 b 487 -361 686 -279 626 -361 b 370 -342 409 -361 370 -342 l 388 -303 b 480 -319 388 -303 431 -319 b 636 -51 592 -319 636 -247 l 636 336 b 394 643 636 495 574 643 b 152 336 214 643 152 495 l 152 0 l 102 0 l 102 671 l 152 671 l 152 514 b 401 685 155 522 197 685 b 686 349 586 685 686 544 "},"ò":{"ha":826,"x_min":0,"x_max":0,"o":"m 429 766 l 380 766 l 173 972 l 240 972 m 75 336 b 413 685 75 538 220 685 b 751 336 606 685 751 538 b 413 -14 751 133 606 -14 b 75 336 220 -14 75 133 m 701 336 b 413 643 701 516 578 643 b 125 336 248 643 125 516 b 413 28 125 155 248 28 b 701 336 578 28 701 155 "},"ó":{"ha":826,"x_min":0,"x_max":0,"o":"m 574 972 l 641 972 l 433 766 l 385 766 m 75 336 b 413 685 75 538 220 685 b 751 336 606 685 751 538 b 413 -14 751 133 606 -14 b 75 336 220 -14 75 133 m 701 336 b 413 643 701 516 578 643 b 125 336 248 643 125 516 b 413 28 125 155 248 28 b 701 336 578 28 701 155 "},"ô":{"ha":826,"x_min":0,"x_max":0,"o":"m 613 768 l 562 768 l 413 931 l 264 768 l 213 768 l 392 972 l 434 972 m 75 336 b 413 685 75 538 220 685 b 751 336 606 685 751 538 b 413 -14 751 133 606 -14 b 75 336 220 -14 75 133 m 701 336 b 413 643 701 516 578 643 b 125 336 248 643 125 516 b 413 28 125 155 248 28 b 701 336 578 28 701 155 "},"õ":{"ha":826,"x_min":0,"x_max":0,"o":"m 401 889 b 333 930 381 911 365 930 b 272 872 281 930 272 872 l 228 872 b 333 972 228 872 239 972 b 427 920 381 972 404 945 b 495 878 447 897 463 878 b 556 937 547 878 556 937 l 600 937 b 495 836 600 937 589 836 b 401 889 447 836 424 863 m 75 336 b 413 685 75 538 220 685 b 751 336 606 685 751 538 b 413 -14 751 133 606 -14 b 75 336 220 -14 75 133 m 701 336 b 413 643 701 516 578 643 b 125 336 248 643 125 516 b 413 28 125 155 248 28 b 701 336 578 28 701 155 "},"ö":{"ha":826,"x_min":0,"x_max":0,"o":"m 253 877 b 294 918 253 900 271 918 b 336 877 317 918 336 900 b 294 836 336 854 317 836 b 253 877 271 836 253 854 m 490 877 b 532 918 490 900 509 918 b 573 877 555 918 573 900 b 532 836 573 854 555 836 b 490 877 509 836 490 854 m 75 336 b 413 685 75 538 220 685 b 751 336 606 685 751 538 b 413 -14 751 133 606 -14 b 75 336 220 -14 75 133 m 701 336 b 413 643 701 516 578 643 b 125 336 248 643 125 516 b 413 28 125 155 248 28 b 701 336 578 28 701 155 "},"ō":{"ha":826,"x_min":0,"x_max":0,"o":"m 195 972 l 631 972 l 631 930 l 195 930 m 75 336 b 413 685 75 538 220 685 b 751 336 606 685 751 538 b 413 -14 751 133 606 -14 b 75 336 220 -14 75 133 m 701 336 b 413 643 701 516 578 643 b 125 336 248 643 125 516 b 413 28 125 155 248 28 b 701 336 578 28 701 155 "},"ő":{"ha":826,"x_min":0,"x_max":0,"o":"m 552 972 l 595 972 l 488 743 l 460 743 m 406 972 l 449 972 l 343 743 l 313 743 m 75 336 b 413 685 75 538 220 685 b 751 336 606 685 751 538 b 413 -14 751 133 606 -14 b 75 336 220 -14 75 133 m 701 336 b 413 643 701 516 578 643 b 125 336 248 643 125 516 b 413 28 125 155 248 28 b 701 336 578 28 701 155 "},"ŏ":{"ha":826,"x_min":0,"x_max":0,"o":"m 413 832 b 210 972 237 832 210 972 l 249 972 b 413 871 249 972 278 871 b 577 972 548 871 577 972 l 616 972 b 413 832 616 972 589 832 m 75 336 b 413 685 75 538 220 685 b 751 336 606 685 751 538 b 413 -14 751 133 606 -14 b 75 336 220 -14 75 133 m 701 336 b 413 643 701 516 578 643 b 125 336 248 643 125 516 b 413 28 125 155 248 28 b 701 336 578 28 701 155 "},"ø":{"ha":826,"x_min":0,"x_max":0,"o":"m 75 336 b 413 685 75 538 220 685 b 616 620 490 685 560 661 l 663 677 l 722 677 l 650 590 b 751 336 713 528 751 439 b 413 -14 751 133 606 -14 b 207 54 334 -14 263 11 l 163 0 l 104 0 l 173 83 b 75 336 111 145 75 233 m 701 336 b 621 555 701 425 671 500 l 235 88 b 413 28 283 50 345 28 b 701 336 578 28 701 155 m 125 336 b 202 119 125 248 153 173 l 587 585 b 413 643 540 622 480 643 b 125 336 248 643 125 516 "},"ŕ":{"ha":505,"x_min":0,"x_max":0,"o":"m 431 972 l 498 972 l 291 766 l 242 766 m 458 629 b 360 643 458 629 414 643 b 152 329 186 643 152 488 l 152 0 l 102 0 l 102 671 l 152 671 l 152 519 b 361 685 152 519 174 685 b 458 671 415 685 458 671 "},"ŗ":{"ha":534,"x_min":0,"x_max":0,"o":"m 102 -92 l 159 -92 l 38 -361 l -7 -361 m 459 629 b 361 643 459 629 415 643 b 153 329 187 643 153 488 l 153 0 l 103 0 l 103 671 l 153 671 l 153 519 b 363 685 153 519 175 685 b 459 671 416 685 459 671 "},"ř":{"ha":549,"x_min":0,"x_max":0,"o":"m 323 768 l 281 768 l 102 972 l 153 972 l 302 810 l 450 972 l 502 972 m 487 629 b 389 643 487 629 443 643 b 181 329 215 643 181 488 l 181 0 l 131 0 l 131 671 l 181 671 l 181 519 b 391 685 181 519 203 685 b 487 671 444 685 487 671 "},"ś":{"ha":673,"x_min":0,"x_max":0,"o":"m 484 972 l 551 972 l 344 766 l 295 766 m 335 28 b 562 177 481 28 562 87 b 335 327 562 267 491 306 b 79 507 175 349 79 401 b 335 685 79 610 162 685 b 585 541 553 685 585 541 l 534 541 b 335 643 534 541 505 643 b 130 507 182 643 130 576 b 335 372 130 431 195 393 b 612 177 503 347 612 305 b 335 -14 612 52 496 -14 b 61 137 99 -14 61 137 l 111 137 b 335 28 111 137 155 28 "},"ŝ":{"ha":673,"x_min":0,"x_max":0,"o":"m 531 768 l 479 768 l 331 931 l 182 768 l 131 768 l 310 972 l 352 972 m 335 28 b 562 177 481 28 562 87 b 335 327 562 267 491 306 b 79 507 175 349 79 401 b 335 685 79 610 162 685 b 585 541 553 685 585 541 l 534 541 b 335 643 534 541 505 643 b 130 507 182 643 130 576 b 335 372 130 431 195 393 b 612 177 503 347 612 305 b 335 -14 612 52 496 -14 b 61 137 99 -14 61 137 l 111 137 b 335 28 111 137 155 28 "},"ş":{"ha":673,"x_min":0,"x_max":0,"o":"m 335 28 b 562 177 481 28 562 87 b 335 327 562 267 491 306 b 79 507 175 349 79 401 b 335 685 79 610 162 685 b 585 541 553 685 585 541 l 534 541 b 335 643 534 541 505 643 b 130 507 182 643 130 576 b 335 372 130 431 195 393 b 612 177 503 347 612 305 b 359 -13 612 58 507 -7 l 330 -95 b 472 -193 413 -94 477 -117 b 221 -275 465 -309 309 -317 l 239 -237 b 426 -191 303 -263 418 -270 b 272 -136 432 -134 366 -130 l 315 -13 b 61 137 97 -5 61 137 l 111 137 b 335 28 111 137 155 28 "},"š":{"ha":673,"x_min":0,"x_max":0,"o":"m 342 768 l 300 768 l 121 972 l 173 972 l 321 810 l 470 972 l 522 972 m 335 28 b 562 177 481 28 562 87 b 335 327 562 267 491 306 b 79 507 175 349 79 401 b 335 685 79 610 162 685 b 585 541 553 685 585 541 l 534 541 b 335 643 534 541 505 643 b 130 507 182 643 130 576 b 335 372 130 431 195 393 b 612 177 503 347 612 305 b 335 -14 612 52 496 -14 b 61 137 99 -14 61 137 l 111 137 b 335 28 111 137 155 28 "},"ș":{"ha":673,"x_min":0,"x_max":0,"o":"m 306 -92 l 363 -92 l 242 -361 l 197 -361 m 335 28 b 562 177 481 28 562 87 b 335 327 562 267 491 306 b 79 507 175 349 79 401 b 335 685 79 610 162 685 b 585 541 553 685 585 541 l 534 541 b 335 643 534 541 505 643 b 130 507 182 643 130 576 b 335 372 130 431 195 393 b 612 177 503 347 612 305 b 335 -14 612 52 496 -14 b 61 137 99 -14 61 137 l 111 137 b 335 28 111 137 155 28 "},"ţ":{"ha":555,"x_min":0,"x_max":0,"o":"m 61 671 l 214 671 l 214 871 l 264 871 l 264 671 l 481 671 l 481 629 l 264 629 l 264 269 b 389 28 264 106 278 28 b 481 41 427 28 481 41 l 481 0 b 382 -14 481 0 435 -14 b 214 269 247 -14 214 74 l 214 629 l 61 629 m 328 -92 l 385 -92 l 264 -361 l 219 -361 "},"ț":{"ha":555,"x_min":0,"x_max":0,"o":"m 61 671 l 214 671 l 214 871 l 264 871 l 264 671 l 481 671 l 481 629 l 264 629 l 264 269 b 389 28 264 106 278 28 b 481 41 427 28 481 41 l 481 0 b 382 -14 481 0 435 -14 b 214 269 247 -14 214 74 l 214 629 l 61 629 m 328 -92 l 385 -92 l 264 -361 l 219 -361 "},"ť":{"ha":567,"x_min":0,"x_max":0,"o":"m 568 1028 l 628 1028 l 561 732 l 523 732 m 61 671 l 214 671 l 214 871 l 264 871 l 264 671 l 481 671 l 481 629 l 264 629 l 264 269 b 389 28 264 106 278 28 b 481 41 427 28 481 41 l 481 0 b 382 -14 481 0 435 -14 b 214 269 247 -14 214 74 l 214 629 l 61 629 "},"ŧ":{"ha":555,"x_min":0,"x_max":0,"o":"m 61 671 l 214 671 l 214 871 l 264 871 l 264 671 l 481 671 l 481 629 l 264 629 l 264 415 l 481 415 l 481 373 l 264 373 l 264 269 b 389 28 264 106 278 28 b 481 41 427 28 481 41 l 481 0 b 382 -14 481 0 435 -14 b 214 269 247 -14 214 74 l 214 373 l 61 373 l 61 415 l 214 415 l 214 629 l 61 629 "},"ù":{"ha":788,"x_min":0,"x_max":0,"o":"m 414 766 l 366 766 l 158 972 l 225 972 m 102 671 l 152 671 l 152 336 b 394 28 152 176 214 28 b 636 336 574 28 636 176 l 636 671 l 686 671 l 686 0 l 636 0 l 636 157 b 387 -14 633 150 591 -14 b 102 322 202 -14 102 127 "},"ú":{"ha":788,"x_min":0,"x_max":0,"o":"m 551 972 l 618 972 l 410 766 l 361 766 m 102 671 l 152 671 l 152 336 b 394 28 152 176 214 28 b 636 336 574 28 636 176 l 636 671 l 686 671 l 686 0 l 636 0 l 636 157 b 387 -14 633 150 591 -14 b 102 322 202 -14 102 127 "},"û":{"ha":788,"x_min":0,"x_max":0,"o":"m 594 768 l 543 768 l 394 931 l 245 768 l 194 768 l 373 972 l 415 972 m 102 671 l 152 671 l 152 336 b 394 28 152 176 214 28 b 636 336 574 28 636 176 l 636 671 l 686 671 l 686 0 l 636 0 l 636 157 b 387 -14 633 150 591 -14 b 102 322 202 -14 102 127 "},"ü":{"ha":788,"x_min":0,"x_max":0,"o":"m 234 877 b 275 918 234 900 252 918 b 317 877 298 918 317 900 b 275 836 317 854 298 836 b 234 877 252 836 234 854 m 471 877 b 513 918 471 900 490 918 b 554 877 536 918 554 900 b 513 836 554 854 536 836 b 471 877 490 836 471 854 m 102 671 l 152 671 l 152 336 b 394 28 152 176 214 28 b 636 336 574 28 636 176 l 636 671 l 686 671 l 686 0 l 636 0 l 636 157 b 387 -14 633 150 591 -14 b 102 322 202 -14 102 127 "},"ũ":{"ha":788,"x_min":0,"x_max":0,"o":"m 381 889 b 313 930 361 911 345 930 b 252 872 262 930 252 872 l 208 872 b 313 972 208 872 220 972 b 408 920 361 972 385 945 b 475 878 427 897 444 878 b 536 937 527 878 536 937 l 581 937 b 475 836 581 937 569 836 b 381 889 427 836 404 863 m 102 671 l 152 671 l 152 336 b 394 28 152 176 214 28 b 636 336 574 28 636 176 l 636 671 l 686 671 l 686 0 l 636 0 l 636 157 b 387 -14 633 150 591 -14 b 102 322 202 -14 102 127 "},"ū":{"ha":788,"x_min":0,"x_max":0,"o":"m 176 972 l 612 972 l 612 930 l 176 930 m 102 671 l 152 671 l 152 336 b 394 28 152 176 214 28 b 636 336 574 28 636 176 l 636 671 l 686 671 l 686 0 l 636 0 l 636 157 b 387 -14 633 150 591 -14 b 102 322 202 -14 102 127 "},"ŭ":{"ha":788,"x_min":0,"x_max":0,"o":"m 394 832 b 191 972 218 832 191 972 l 230 972 b 394 871 230 972 259 871 b 558 972 529 871 558 972 l 597 972 b 394 832 597 972 570 832 m 102 671 l 152 671 l 152 336 b 394 28 152 176 214 28 b 636 336 574 28 636 176 l 636 671 l 686 671 l 686 0 l 636 0 l 636 157 b 387 -14 633 150 591 -14 b 102 322 202 -14 102 127 "},"ů":{"ha":788,"x_min":0,"x_max":0,"o":"m 279 878 b 394 993 279 941 325 993 b 509 878 464 993 509 941 b 394 762 509 815 464 762 b 279 878 325 762 279 815 m 317 878 b 394 799 317 839 342 799 b 471 878 446 799 471 839 b 394 956 471 916 446 956 b 317 878 342 956 317 916 m 102 671 l 152 671 l 152 336 b 394 28 152 176 214 28 b 636 336 574 28 636 176 l 636 671 l 686 671 l 686 0 l 636 0 l 636 157 b 387 -14 633 150 591 -14 b 102 322 202 -14 102 127 "},"ű":{"ha":788,"x_min":0,"x_max":0,"o":"m 533 972 l 576 972 l 469 743 l 441 743 m 387 972 l 430 972 l 324 743 l 294 743 m 102 671 l 152 671 l 152 336 b 394 28 152 176 214 28 b 636 336 574 28 636 176 l 636 671 l 686 671 l 686 0 l 636 0 l 636 157 b 387 -14 633 150 591 -14 b 102 322 202 -14 102 127 "},"ų":{"ha":788,"x_min":0,"x_max":0,"o":"m 102 671 l 152 671 l 152 336 b 394 28 152 176 214 28 b 636 336 574 28 636 176 l 636 671 l 686 671 l 686 0 b 581 -117 686 0 581 -26 b 680 -198 581 -202 680 -198 l 680 -241 b 541 -117 629 -245 534 -218 b 642 0 547 -29 638 -1 l 636 0 l 636 157 b 387 -14 633 150 591 -14 b 102 322 202 -14 102 127 "},"ŵ":{"ha":981,"x_min":0,"x_max":0,"o":"m 297 0 l 267 0 l 41 671 l 95 671 l 283 106 l 474 671 l 507 671 l 697 106 l 886 671 l 940 671 l 713 0 l 684 0 l 490 573 m 690 768 l 639 768 l 490 931 l 342 768 l 290 768 l 469 972 l 511 972 "},"ý":{"ha":728,"x_min":0,"x_max":0,"o":"m 518 972 l 585 972 l 378 766 l 329 766 m 632 671 l 688 671 l 232 -361 l 177 -361 l 337 0 l 41 671 l 96 671 l 364 64 "},"ŷ":{"ha":728,"x_min":0,"x_max":0,"o":"m 564 768 l 513 768 l 364 931 l 216 768 l 164 768 l 343 972 l 385 972 m 632 671 l 688 671 l 232 -361 l 177 -361 l 337 0 l 41 671 l 96 671 l 364 64 "},"ÿ":{"ha":728,"x_min":0,"x_max":0,"o":"m 632 671 l 688 671 l 232 -361 l 177 -361 l 337 0 l 41 671 l 96 671 l 364 64 m 204 877 b 245 918 204 900 222 918 b 287 877 269 918 287 900 b 245 836 287 854 269 836 b 204 877 222 836 204 854 m 441 877 b 483 918 441 900 460 918 b 524 877 506 918 524 900 b 483 836 524 854 506 836 b 441 877 460 836 441 854 "},"ź":{"ha":699,"x_min":0,"x_max":0,"o":"m 507 972 l 574 972 l 366 766 l 317 766 m 75 26 l 553 629 l 92 629 l 92 671 l 625 671 l 625 646 l 146 42 l 625 42 l 625 0 l 75 0 "},"ż":{"ha":699,"x_min":0,"x_max":0,"o":"m 318 877 b 359 918 318 900 336 918 b 401 877 382 918 401 900 b 359 836 401 854 382 836 b 318 877 336 836 318 854 m 75 26 l 553 629 l 92 629 l 92 671 l 625 671 l 625 646 l 146 42 l 625 42 l 625 0 l 75 0 "},"ž":{"ha":699,"x_min":0,"x_max":0,"o":"m 376 768 l 334 768 l 155 972 l 207 972 l 355 810 l 504 972 l 555 972 m 75 26 l 553 629 l 92 629 l 92 671 l 625 671 l 625 646 l 146 42 l 625 42 l 625 0 l 75 0 "},"Þ":{"ha":880,"x_min":0,"x_max":0,"o":"m 115 972 l 171 972 l 171 760 l 548 760 b 806 486 700 760 806 645 b 548 212 806 329 700 212 l 171 212 l 171 0 l 115 0 m 171 710 l 171 262 l 548 262 b 750 486 673 262 750 359 b 548 710 750 614 673 710 "},"þ":{"ha":853,"x_min":0,"x_max":0,"o":"m 779 336 b 440 -14 779 133 633 -14 b 152 176 228 -14 152 176 l 152 -361 l 102 -361 l 102 1028 l 152 1028 l 152 494 b 440 685 152 494 228 685 b 779 336 633 685 779 538 m 152 336 b 440 28 152 155 275 28 b 728 336 606 28 728 155 b 440 643 728 516 606 643 b 152 336 275 643 152 516 "},"ß":{"ha":926,"x_min":0,"x_max":0,"o":"m 288 82 b 516 37 288 82 384 37 b 781 261 688 37 781 117 b 504 482 781 405 669 482 l 332 482 l 332 532 l 503 532 b 744 729 649 532 744 609 b 452 936 744 850 633 936 b 171 599 289 936 171 854 l 171 0 l 115 0 l 115 599 b 452 986 115 935 310 986 b 801 729 664 986 801 879 b 624 509 801 614 715 534 b 838 261 731 487 838 400 b 516 -14 838 87 720 -14 b 288 27 368 -14 288 27 "},"№":{"ha":1585,"x_min":0,"x_max":0,"o":"m 991 49 l 1486 49 l 1486 0 l 991 0 m 1510 409 b 1239 129 1510 248 1397 129 b 967 409 1080 129 967 248 b 1239 689 967 570 1080 689 b 1510 409 1397 689 1510 570 m 1453 409 b 1239 640 1453 536 1371 640 b 1025 409 1107 640 1025 536 b 1239 178 1025 281 1107 178 b 1453 409 1371 178 1453 281 m 115 972 l 183 972 l 795 74 l 795 972 l 850 972 l 850 0 l 783 0 l 171 899 l 171 0 l 115 0 "},"℞":{"ha":1027,"x_min":0,"x_max":0,"o":"m 115 0 l 115 972 l 515 972 b 811 692 699 972 811 865 b 619 418 811 554 741 454 l 759 258 l 909 430 l 973 430 l 791 221 l 987 0 l 923 0 l 758 186 l 593 0 l 530 0 l 726 221 l 562 407 b 515 404 547 405 531 404 l 171 404 l 171 0 m 171 922 l 171 454 l 515 454 b 754 692 672 454 754 555 b 515 922 754 829 672 922 "},"Ω":{"ha":1135,"x_min":0,"x_max":0,"o":"m 146 520 b 482 37 146 286 341 105 l 482 0 l 118 0 l 118 50 l 392 50 b 88 520 392 50 88 208 b 568 986 88 789 305 986 b 1047 520 830 986 1047 789 b 743 50 1047 208 743 50 l 1017 50 l 1017 0 l 653 0 l 653 37 b 989 520 794 105 989 286 b 568 936 989 755 810 936 b 146 520 326 936 146 755 "},"Ω":{"ha":1135,"x_min":0,"x_max":0,"o":"m 146 520 b 482 37 146 286 341 105 l 482 0 l 118 0 l 118 50 l 392 50 b 88 520 392 50 88 208 b 568 986 88 789 305 986 b 1047 520 830 986 1047 789 b 743 50 1047 208 743 50 l 1017 50 l 1017 0 l 653 0 l 653 37 b 989 520 794 105 989 286 b 568 936 989 755 810 936 b 146 520 326 936 146 755 "},"µ":{"ha":788,"x_min":0,"x_max":0,"o":"m 394 28 b 636 336 574 28 636 176 l 636 671 l 686 671 l 686 0 l 636 0 l 636 157 b 394 -14 633 150 598 -14 b 152 157 190 -14 155 150 l 152 -361 l 102 -361 l 102 671 l 152 671 l 152 336 b 394 28 152 176 214 28 "},"ℓ":{"ha":400,"x_min":0,"x_max":0,"o":"m 307 986 b 182 553 404 986 303 657 b 146 271 165 471 148 343 b 197 37 142 118 148 37 b 279 98 246 37 279 98 l 324 77 b 197 -14 324 77 287 -14 b 90 266 102 -14 82 64 b 307 986 100 517 196 986 m 300 937 b 188 595 293 937 218 739 b 300 937 241 676 292 836 "},"℮":{"ha":1223,"x_min":0,"x_max":0,"o":"m 611 46 b 1011 170 853 46 1011 170 l 1053 119 b 611 -14 1053 119 897 -14 b 88 481 264 -14 88 208 b 611 986 88 768 264 986 b 1135 454 962 986 1138 783 l 295 454 l 295 142 b 611 46 370 81 475 46 m 611 926 b 295 829 475 926 370 891 l 295 514 l 923 514 l 923 837 b 611 926 849 895 745 926 "},"%":{"ha":943,"x_min":0,"x_max":0,"o":"m 463 789 b 269 591 463 680 385 591 b 75 789 152 591 75 680 b 269 986 75 897 152 986 b 463 789 385 986 463 897 m 413 789 b 269 939 413 872 359 939 b 124 789 178 939 124 872 b 269 638 124 705 178 638 b 413 789 359 638 413 705 m 195 0 l 135 0 l 747 972 l 808 972 m 480 184 b 674 382 480 293 557 382 b 868 184 791 382 868 293 b 674 -14 868 75 791 -14 b 480 184 557 -14 480 75 m 530 184 b 674 34 530 100 584 34 b 819 184 764 34 819 100 b 674 334 819 268 764 334 b 530 184 584 334 530 268 "},"‰":{"ha":1369,"x_min":0,"x_max":0,"o":"m 463 789 b 269 591 463 680 385 591 b 75 789 152 591 75 680 b 269 986 75 897 152 986 b 463 789 385 986 463 897 m 413 789 b 269 939 413 872 359 939 b 124 789 178 939 124 872 b 269 638 124 705 178 638 b 413 789 359 638 413 705 m 195 0 l 135 0 l 747 972 l 808 972 m 480 184 b 674 382 480 293 557 382 b 868 184 791 382 868 293 b 674 -14 868 75 791 -14 b 480 184 557 -14 480 75 m 530 184 b 674 34 530 100 584 34 b 819 184 764 34 819 100 b 674 334 819 268 764 334 b 530 184 584 334 530 268 m 906 184 b 1100 382 906 293 983 382 b 1294 184 1217 382 1294 293 b 1100 -14 1294 75 1217 -14 b 906 184 983 -14 906 75 m 956 184 b 1100 34 956 100 1010 34 b 1244 184 1190 34 1244 100 b 1100 334 1244 268 1190 334 b 956 184 1010 334 956 268 "},"±":{"ha":567,"x_min":0,"x_max":0,"o":"m 513 134 l 54 134 l 54 178 l 513 178 m 506 521 l 309 521 l 309 324 l 258 324 l 258 521 l 61 521 l 61 565 l 258 565 l 258 762 l 309 762 l 309 565 l 506 565 "},"+":{"ha":675,"x_min":0,"x_max":0,"o":"m 587 452 l 363 452 l 363 228 l 312 228 l 312 452 l 88 452 l 88 498 l 312 498 l 312 722 l 363 722 l 363 498 l 587 498 "},"-":{"ha":600,"x_min":0,"x_max":0,"o":"m 88 393 l 511 393 l 511 351 l 88 351 "},"×":{"ha":625,"x_min":0,"x_max":0,"o":"m 122 696 l 312 507 l 502 696 l 536 662 l 347 472 l 536 283 l 502 248 l 312 438 l 122 248 l 89 282 l 279 472 l 88 663 "},"÷":{"ha":655,"x_min":0,"x_max":0,"o":"m 88 503 l 567 503 l 567 449 l 88 449 m 271 302 b 328 359 271 333 296 359 b 385 302 359 359 385 333 b 328 245 385 271 359 245 b 271 302 296 245 271 271 m 271 649 b 328 706 271 680 296 706 b 385 649 359 706 385 680 b 328 593 385 618 359 593 b 271 649 296 593 271 618 "},"=":{"ha":673,"x_min":0,"x_max":0,"o":"m 88 409 l 585 409 l 585 355 l 88 355 m 88 596 l 585 596 l 585 543 l 88 543 "},"∫":{"ha":412,"x_min":0,"x_max":0,"o":"m 178 1050 b 262 1164 178 1117 199 1164 b 351 1122 315 1164 351 1122 l 320 1088 b 265 1114 320 1088 292 1114 b 234 1050 241 1114 234 1093 l 234 -247 b 151 -361 234 -313 214 -361 b 61 -319 97 -361 61 -319 l 92 -284 b 147 -310 92 -284 120 -310 b 178 -247 171 -310 178 -289 l 178 1050 "},"≈":{"ha":713,"x_min":0,"x_max":0,"o":"m 340 489 b 230 530 302 515 262 530 b 88 456 188 530 134 511 l 88 517 b 230 578 118 551 166 578 b 374 524 288 578 331 552 b 484 484 411 498 451 484 b 625 557 526 484 579 502 l 625 496 b 484 435 595 463 547 435 b 340 489 426 435 382 461 m 340 316 b 230 357 302 342 262 357 b 88 283 188 357 134 338 l 88 344 b 230 405 118 378 166 405 b 374 351 288 405 331 379 b 484 311 411 325 451 311 b 625 385 526 311 579 329 l 625 323 b 484 262 595 290 547 262 b 340 316 426 262 382 288 "},"≠":{"ha":673,"x_min":0,"x_max":0,"o":"m 88 596 l 370 596 l 449 749 l 504 749 l 425 596 l 585 596 l 585 543 l 399 543 l 330 409 l 585 409 l 585 355 l 302 355 l 225 203 l 169 203 l 247 355 l 88 355 l 88 409 l 275 409 l 343 543 l 88 543 "},"≤":{"ha":811,"x_min":0,"x_max":0,"o":"m 88 50 l 709 50 l 709 0 l 88 0 m 709 829 l 709 776 l 159 493 l 709 210 l 709 157 l 95 473 l 95 513 "},"≥":{"ha":811,"x_min":0,"x_max":0,"o":"m 723 0 l 102 0 l 102 50 l 723 50 m 716 513 l 716 473 l 102 157 l 102 210 l 652 493 l 102 776 l 102 829 "},"<":{"ha":804,"x_min":0,"x_max":0,"o":"m 703 748 l 703 694 l 153 412 l 703 129 l 703 75 l 88 391 l 88 432 "},">":{"ha":804,"x_min":0,"x_max":0,"o":"m 716 432 l 716 391 l 102 75 l 102 129 l 652 412 l 102 694 l 102 748 "},"‹":{"ha":625,"x_min":0,"x_max":0,"o":"m 132 412 l 523 101 l 523 38 l 88 384 l 88 439 l 523 785 l 523 722 "},"›":{"ha":625,"x_min":0,"x_max":0,"o":"m 102 722 l 102 785 l 536 439 l 536 384 l 102 38 l 102 101 l 492 412 "},"«":{"ha":964,"x_min":0,"x_max":0,"o":"m 132 412 l 523 101 l 523 38 l 88 384 l 88 439 l 523 785 l 523 722 m 471 412 l 862 101 l 862 38 l 427 384 l 427 439 l 862 785 l 862 722 "},"»":{"ha":964,"x_min":0,"x_max":0,"o":"m 441 722 l 441 785 l 876 439 l 876 384 l 441 38 l 441 101 l 831 412 m 102 722 l 102 785 l 536 439 l 536 384 l 102 38 l 102 101 l 492 412 "},"¬":{"ha":800,"x_min":0,"x_max":0,"o":"m 88 523 l 712 523 l 712 193 l 657 193 l 657 472 l 88 472 "},"­":{"ha":661,"x_min":0,"x_max":0,"o":"m 88 454 l 573 454 l 573 404 l 88 404 "},"°":{"ha":446,"x_min":0,"x_max":0,"o":"m 41 808 b 218 986 41 907 119 986 b 395 808 316 986 395 907 b 218 631 395 710 316 631 b 41 808 119 631 41 710 m 91 808 b 218 679 91 735 143 679 b 345 808 292 679 345 735 b 218 938 345 882 292 938 b 91 808 143 938 91 882 "},"∂":{"ha":954,"x_min":0,"x_max":0,"o":"m 434 936 b 266 819 286 936 266 819 l 205 819 b 434 986 205 819 235 986 b 736 302 705 986 745 684 b 450 -14 732 150 654 -14 b 151 306 264 -14 151 129 b 450 612 151 474 264 612 b 686 454 624 612 684 460 b 434 936 671 752 630 933 m 208 306 b 450 37 208 159 296 37 b 679 306 604 37 679 159 b 450 562 679 453 604 562 b 208 306 296 562 208 453 "},"∆":{"ha":1034,"x_min":0,"x_max":0,"o":"m 54 0 l 503 972 l 531 972 l 979 0 m 138 50 l 896 50 l 517 880 "},"π":{"ha":841,"x_min":0,"x_max":0,"o":"m 61 671 l 780 671 l 780 629 l 630 629 l 630 122 b 668 42 630 60 639 42 l 696 42 l 696 0 l 668 0 b 579 122 595 0 579 38 l 579 629 l 262 629 l 262 0 l 211 0 l 211 629 l 61 629 "},"∑":{"ha":879,"x_min":0,"x_max":0,"o":"m 777 972 l 777 922 l 199 922 l 522 486 l 193 50 l 777 50 l 777 0 l 115 0 l 115 38 l 454 486 l 121 935 l 121 972 "},"∏":{"ha":945,"x_min":0,"x_max":0,"o":"m 115 972 l 830 972 l 830 0 l 774 0 l 774 922 l 171 922 l 171 0 l 115 0 "},"∕":{"ha":765,"x_min":0,"x_max":0,"o":"m 633 972 l 690 972 l 132 0 l 75 0 "},"√":{"ha":774,"x_min":0,"x_max":0,"o":"m 835 1094 l 402 0 l 385 0 l 156 568 l 41 568 l 41 616 l 194 616 l 393 123 l 777 1094 "},"∞":{"ha":1229,"x_min":0,"x_max":0,"o":"m 614 414 b 336 201 562 317 479 201 b 75 475 174 201 75 317 b 336 750 75 633 174 750 b 614 536 479 750 562 633 b 892 750 667 633 749 750 b 1154 475 1055 750 1154 633 b 892 201 1154 317 1055 201 b 614 414 749 201 667 317 m 640 475 b 892 251 690 374 758 251 b 1099 475 1028 251 1099 352 b 892 700 1099 599 1028 700 b 640 475 758 700 690 576 m 589 475 b 336 700 538 576 471 700 b 130 475 201 700 130 599 b 336 251 130 352 201 251 b 589 475 471 251 538 374 "},"⌘":{"ha":1101,"x_min":0,"x_max":0,"o":"m 352 132 b 220 0 352 60 292 0 b 88 132 148 0 88 60 b 220 264 88 204 148 264 l 313 264 l 313 708 l 220 708 b 88 840 148 708 88 768 b 220 972 88 913 148 972 b 352 840 292 972 352 913 l 352 747 l 797 747 l 797 840 b 928 972 797 913 857 972 b 1061 840 1001 972 1061 913 b 928 708 1061 768 1001 708 l 836 708 l 836 264 l 928 264 b 1061 132 1001 264 1061 204 b 928 0 1061 60 1001 0 b 797 132 857 0 797 60 l 797 225 l 352 225 m 352 264 l 797 264 l 797 708 l 352 708 m 836 132 b 928 39 836 83 866 39 b 1022 132 991 39 1022 83 b 928 225 1022 180 991 225 l 836 225 m 313 840 b 220 933 313 889 283 933 b 127 840 158 933 127 889 b 220 747 127 791 158 747 l 313 747 m 836 747 l 928 747 b 1022 840 991 747 1022 791 b 928 933 1022 889 991 933 b 836 840 866 933 836 889 m 313 225 l 220 225 b 127 132 158 225 127 180 b 220 39 127 83 158 39 b 313 132 283 39 313 83 "},"■":{"ha":1155,"x_min":0,"x_max":0,"o":"m 1053 0 l 102 0 l 102 972 l 1053 972 "},"□":{"ha":1155,"x_min":0,"x_max":0,"o":"m 1053 0 l 102 0 l 102 972 l 1053 972 m 956 884 l 199 884 l 199 88 l 956 88 "},"▲":{"ha":1065,"x_min":0,"x_max":0,"o":"m 532 983 l 1024 1 l 41 1 "},"▶":{"ha":1185,"x_min":0,"x_max":0,"o":"m 1084 488 l 102 -4 l 102 979 "},"►":{"ha":1131,"x_min":0,"x_max":0,"o":"m 1057 488 l 75 -4 l 75 979 "},"▼":{"ha":1133,"x_min":0,"x_max":0,"o":"m 75 972 l 1058 972 l 566 -9 "},"◄":{"ha":1131,"x_min":0,"x_max":0,"o":"m 1057 979 l 1057 -4 l 75 488 "},"◆":{"ha":1162,"x_min":0,"x_max":0,"o":"m 580 979 l 1074 488 l 580 -3 l 88 488 "},"◊":{"ha":614,"x_min":0,"x_max":0,"o":"m 553 486 l 349 0 l 265 0 l 61 486 l 265 972 l 349 972 m 452 486 l 307 844 l 162 486 l 307 129 "},"●":{"ha":819,"x_min":0,"x_max":0,"o":"m 75 480 b 410 816 75 664 226 816 b 745 480 594 816 745 664 b 410 144 745 296 594 144 b 75 480 226 144 75 296 "},"☺":{"ha":1149,"x_min":0,"x_max":0,"o":"m 75 486 b 574 986 75 762 298 986 b 1074 486 850 986 1074 762 b 574 -14 1074 210 850 -14 b 75 486 298 -14 75 210 m 163 486 b 574 75 163 259 347 75 b 986 486 802 75 986 259 b 574 898 986 713 802 898 b 163 486 347 898 163 713 m 340 591 b 418 669 340 634 375 669 b 497 591 462 669 497 634 b 418 512 497 547 462 512 b 340 591 375 512 340 547 m 652 591 b 730 669 652 634 687 669 b 809 591 774 669 809 634 b 730 512 809 547 774 512 b 652 591 687 512 652 547 m 574 198 b 296 349 474 198 351 253 l 358 408 b 574 289 417 309 512 289 b 791 408 637 289 732 309 l 853 349 b 574 198 798 253 675 198 "},"☻":{"ha":1149,"x_min":0,"x_max":0,"o":"m 75 486 b 574 986 75 762 298 986 b 1074 486 850 986 1074 762 b 574 -14 1074 210 850 -14 b 75 486 298 -14 75 210 m 340 591 b 418 512 340 547 375 512 b 497 591 462 512 497 547 b 418 669 497 634 462 669 b 340 591 375 669 340 634 m 652 591 b 730 512 652 547 687 512 b 809 591 774 512 809 547 b 730 669 809 634 774 669 b 652 591 687 669 652 634 m 574 198 b 853 349 675 198 798 253 l 791 408 b 574 289 732 309 637 289 b 358 408 512 289 417 309 l 296 349 b 574 198 351 253 474 198 "},"♀":{"ha":873,"x_min":0,"x_max":0,"o":"m 260 146 l 393 146 l 393 292 b 88 637 221 314 88 460 b 437 986 88 830 244 986 b 785 637 629 987 785 830 b 481 292 785 460 653 313 l 481 146 l 613 146 l 613 58 l 481 58 l 481 -75 l 393 -75 l 393 58 l 260 58 m 696 638 b 437 898 696 781 580 898 b 177 638 293 897 177 781 b 437 378 177 495 294 378 b 696 638 580 378 696 494 "},"♂":{"ha":1063,"x_min":0,"x_max":0,"o":"m 191 582 b 650 611 316 707 513 718 l 821 781 l 695 755 l 620 831 l 975 873 l 932 518 l 857 593 l 883 719 l 713 549 b 684 89 819 412 809 214 b 191 89 547 -47 327 -47 b 191 582 54 224 54 446 m 253 519 b 253 151 152 418 152 252 b 621 151 355 50 519 50 b 621 519 722 252 722 418 b 253 519 519 620 355 620 "},"♠":{"ha":928,"x_min":0,"x_max":0,"o":"m 350 0 b 416 254 350 0 397 83 b 124 267 332 195 199 175 b 241 667 3 418 130 545 b 464 981 315 747 416 874 b 686 667 511 874 612 747 b 804 267 798 545 924 418 b 512 254 728 175 596 195 b 578 0 530 83 578 0 l 464 1 "},"♣":{"ha":1085,"x_min":0,"x_max":0,"o":"m 429 0 b 496 299 429 0 477 114 b 286 195 450 252 392 195 b 81 352 192 195 105 259 b 234 606 54 456 121 577 b 388 602 282 617 336 612 b 334 778 355 657 334 725 b 543 986 334 892 428 986 b 751 778 657 986 751 892 b 697 602 751 725 730 657 b 851 606 749 612 803 617 b 1004 352 964 577 1031 456 b 800 195 980 259 893 195 b 589 299 693 195 635 252 b 656 0 608 114 656 0 "},"♥":{"ha":1203,"x_min":0,"x_max":0,"o":"m 602 -3 b 166 927 304 126 -112 685 b 602 829 296 1040 501 996 b 1037 927 702 996 907 1040 b 602 -3 1315 685 899 126 "},"♦":{"ha":821,"x_min":0,"x_max":0,"o":"m 410 978 l 746 484 l 410 -9 l 75 484 "},"✓":{"ha":907,"x_min":0,"x_max":0,"o":"m 75 519 l 136 519 l 332 116 b 841 972 423 340 616 745 l 907 972 b 342 0 559 613 342 0 l 332 0 "},"←":{"ha":1051,"x_min":0,"x_max":0,"o":"m 311 458 l 169 353 l 949 353 l 949 314 l 169 314 l 311 208 l 311 161 l 88 334 l 311 505 "},"↑":{"ha":521,"x_min":0,"x_max":0,"o":"m 386 639 l 280 781 l 280 0 l 241 0 l 241 781 l 136 639 l 88 639 l 260 861 l 433 639 "},"→":{"ha":1051,"x_min":0,"x_max":0,"o":"m 741 505 l 963 334 l 741 161 l 741 208 l 882 314 l 102 314 l 102 353 l 882 353 l 741 458 "},"↓":{"ha":521,"x_min":0,"x_max":0,"o":"m 433 222 l 260 0 l 88 222 l 136 222 l 241 81 l 241 861 l 280 861 l 280 81 l 386 222 "},"↖":{"ha":799,"x_min":0,"x_max":0,"o":"m 123 472 l 88 751 l 368 715 l 334 682 l 159 708 l 711 155 l 683 127 l 132 681 l 157 505 "},"↘":{"ha":799,"x_min":0,"x_max":0,"o":"m 676 407 l 711 127 l 431 164 l 465 197 l 640 171 l 88 724 l 116 751 l 667 199 l 643 374 "},"¤":{"ha":704,"x_min":0,"x_max":0,"o":"m 598 985 l 629 956 l 543 870 b 603 709 581 827 603 770 b 544 547 603 648 581 591 l 629 462 l 600 432 l 514 517 b 353 458 471 481 414 458 b 190 518 291 458 234 481 l 105 432 l 75 462 l 161 548 b 102 709 124 591 102 648 b 161 870 102 770 125 827 l 76 956 l 105 985 l 191 900 b 353 959 235 937 292 959 b 513 900 414 959 470 937 m 140 709 b 353 496 140 592 236 496 b 565 709 469 496 565 592 b 353 921 565 825 469 921 b 140 709 236 921 140 825 "},"$":{"ha":838,"x_min":0,"x_max":0,"o":"m 132 201 b 414 37 132 201 191 37 b 707 251 600 37 707 115 b 414 477 707 376 625 441 b 95 744 178 518 95 606 b 388 985 95 887 212 977 l 388 1140 l 444 1140 l 444 985 b 725 785 695 971 725 785 l 668 785 b 414 936 668 785 643 936 b 151 744 254 936 151 865 b 414 532 151 646 205 569 b 763 251 650 491 763 411 b 444 -13 763 90 647 -4 l 444 -168 l 388 -168 l 388 -13 b 75 201 127 0 75 201 "},"¢":{"ha":751,"x_min":0,"x_max":0,"o":"m 125 336 b 406 28 125 155 241 28 b 633 149 568 28 633 149 l 690 149 b 427 -13 690 149 616 -3 l 427 -155 l 382 -155 l 382 -13 b 75 336 201 -1 75 142 b 382 684 75 530 201 672 l 382 840 l 427 840 l 427 684 b 690 522 616 674 690 522 l 633 522 b 406 643 633 522 568 643 b 125 336 241 643 125 516 "},"€":{"ha":1129,"x_min":0,"x_max":0,"o":"m 288 374 b 690 37 331 186 480 37 b 991 184 903 37 991 184 l 1055 184 b 690 -14 1055 184 954 -14 b 229 374 453 -14 274 152 l 34 374 l 62 425 l 221 425 b 221 548 216 464 216 505 l 34 548 l 62 598 l 229 598 b 690 986 274 820 453 986 b 1055 788 954 986 1055 788 l 991 788 b 690 936 991 788 903 936 b 288 598 480 936 331 786 l 768 598 l 739 548 l 279 548 b 279 425 275 509 275 469 l 768 425 l 739 374 "},"£":{"ha":983,"x_min":0,"x_max":0,"o":"m 115 509 l 254 509 b 239 654 245 556 239 604 b 559 986 239 805 320 986 b 881 761 830 986 881 761 l 825 761 b 559 936 825 761 779 936 b 294 654 366 936 294 781 b 309 509 294 606 300 557 l 689 509 l 689 458 l 317 458 b 343 264 329 395 340 331 b 268 50 349 115 268 50 l 877 50 l 877 0 l 206 0 l 206 30 b 288 264 206 30 294 115 b 262 458 288 330 275 393 l 115 458 "},"₤":{"ha":996,"x_min":0,"x_max":0,"o":"m 115 576 l 243 576 b 239 654 240 602 239 628 b 559 986 239 805 320 986 b 881 761 830 986 881 761 l 825 761 b 559 936 825 761 779 936 b 294 654 366 936 294 781 b 299 576 294 628 296 602 l 689 576 l 689 526 l 306 526 b 323 427 311 493 317 460 l 689 427 l 689 377 l 332 377 b 343 264 337 340 342 302 b 268 50 349 115 268 50 l 877 50 l 877 0 l 206 0 l 206 30 b 288 264 206 30 294 115 b 277 377 288 302 283 340 l 115 377 l 115 427 l 269 427 b 250 526 262 460 256 493 l 115 526 "},"¥":{"ha":954,"x_min":0,"x_max":0,"o":"m 505 313 l 505 208 l 732 208 l 732 161 l 505 161 l 505 0 l 449 0 l 449 161 l 222 161 l 222 208 l 449 208 l 449 313 l 222 313 l 222 359 l 449 359 l 449 399 l 54 972 l 121 972 l 477 458 l 833 972 l 899 972 l 505 399 l 505 359 l 732 359 l 732 313 "},"₺":{"ha":796,"x_min":0,"x_max":0,"o":"m 231 553 l 231 662 l 75 600 l 75 648 l 231 711 l 231 972 l 287 972 l 287 733 l 570 847 l 570 798 l 287 684 l 287 575 l 570 689 l 570 640 l 287 526 l 287 51 b 640 522 527 64 633 252 l 694 522 b 267 0 694 203 532 0 l 231 0 l 231 504 l 75 441 l 75 490 "},"₽":{"ha":1025,"x_min":0,"x_max":0,"o":"m 61 454 l 227 454 l 227 972 l 627 972 b 923 692 811 972 923 865 b 627 404 923 518 811 404 l 283 404 l 283 282 l 677 282 l 677 232 l 283 232 l 283 0 l 227 0 l 227 232 l 61 232 l 61 282 l 227 282 l 227 404 l 61 404 m 283 922 l 283 454 l 627 454 b 866 692 784 454 866 555 b 627 922 866 829 784 922 "},"ƒ":{"ha":758,"x_min":0,"x_max":0,"o":"m 168 671 l 368 671 l 386 775 b 615 972 386 775 411 972 l 690 972 l 684 936 l 608 936 b 428 775 452 936 428 775 l 409 671 l 614 671 l 608 635 l 402 635 l 262 -163 b 33 -361 262 -163 237 -361 l -41 -361 l -34 -325 l 39 -325 b 220 -163 197 -325 220 -163 l 360 635 l 160 635 "},"₡":{"ha":1000,"x_min":0,"x_max":0,"o":"m 440 1 b 327 48 399 12 361 28 l 256 -194 l 208 -194 l 286 75 b 88 486 163 165 88 315 b 552 986 88 760 281 981 l 605 1166 l 653 1166 l 600 985 b 720 958 645 981 685 971 l 781 1166 l 829 1166 l 762 940 b 925 788 878 881 925 788 l 862 788 b 748 890 862 788 827 846 l 500 41 b 561 37 519 38 540 37 b 862 184 773 37 862 184 l 925 184 b 561 -14 925 184 825 -14 b 486 -7 535 -14 510 -12 l 432 -194 l 383 -194 m 146 486 b 302 130 146 346 203 214 l 537 935 b 146 486 300 922 146 715 m 705 909 b 585 935 671 922 631 932 l 342 100 b 454 50 376 78 414 61 l 705 909 "},"₣":{"ha":933,"x_min":0,"x_max":0,"o":"m 759 522 l 759 472 l 247 472 l 247 295 l 460 295 l 460 245 l 247 245 l 247 0 l 191 0 l 191 245 l 34 245 l 34 295 l 191 295 l 191 972 l 831 972 l 831 922 l 247 922 l 247 522 "},"₧":{"ha":1058,"x_min":0,"x_max":0,"o":"m 189 0 l 189 667 l 61 667 l 61 717 l 189 717 l 189 972 l 589 972 b 884 717 764 972 873 876 l 997 717 l 997 667 l 884 667 b 589 404 873 507 764 404 l 245 404 l 245 0 m 589 454 b 827 667 736 454 817 543 l 245 667 l 245 454 l 589 454 m 245 922 l 245 717 l 827 717 b 589 922 817 840 736 922 "},"₫":{"ha":871,"x_min":0,"x_max":0,"o":"m 75 336 b 413 685 75 538 220 685 b 701 494 620 685 697 504 l 701 829 l 488 829 l 488 871 l 701 871 l 701 1028 l 751 1028 l 751 871 l 898 871 l 898 829 l 751 829 l 751 0 l 701 0 l 701 176 b 413 -14 697 167 620 -14 b 75 336 220 -14 75 133 m 701 336 b 413 643 701 516 578 643 b 125 336 248 643 125 516 b 413 28 125 155 248 28 b 701 336 578 28 701 155 m 134 -158 l 134 -116 l 751 -116 l 751 -158 "}}}
